<svg xmlns="http://www.w3.org/2000/svg" xmlns:xlink="http://www.w3.org/1999/xlink" viewBox="0 0 1080 1080" width="1080" height="1080" preserveAspectRatio="xMidYMid meet" style="width: 100%; height: 100%; transform: translate3d(0px, 0px, 0px); content-visibility: visible;"><defs><clipPath id="__lottie_element_577"><rect width="1080" height="1080" x="0" y="0"></rect></clipPath></defs><g clip-path="url(#__lottie_element_577)"><g transform="matrix(28.6299991607666,0,0,28.6299991607666,540,540.0009765625)" opacity="1" style="display: block;"><g opacity="1" transform="matrix(1,0,0,1,0,0)"><path fill="rgb(92,255,79)" fill-opacity="1" d=" M9.35200023651123,-6.077000141143799 C9.35200023651123,-6.077000141143799 9.35200023651123,-2.7660000324249268 9.35200023651123,-2.7660000324249268 C9.35200023651123,-2.7660000324249268 12,-2.7660000324249268 12,-2.7660000324249268 C12,-2.7660000324249268 12,2.7660000324249268 12,2.7660000324249268 C12,2.7660000324249268 9.35200023651123,2.7660000324249268 9.35200023651123,2.7660000324249268 C9.35200023651123,2.7660000324249268 9.35200023651123,6.077000141143799 9.35200023651123,6.077000141143799 C9.35200023651123,6.077000141143799 -12,6.077000141143799 -12,6.077000141143799 C-12,6.077000141143799 -12,-6.077000141143799 -12,-6.077000141143799 C-12,-6.077000141143799 9.35200023651123,-6.077000141143799 9.35200023651123,-6.077000141143799z M-10.241999626159668,4.311999797821045 C-10.241999626159668,4.311999797821045 7.570000171661377,4.311999797821045 7.570000171661377,4.311999797821045 C7.570000171661377,4.311999797821045 7.570000171661377,-4.311999797821045 7.570000171661377,-4.311999797821045 C7.570000171661377,-4.311999797821045 -10.241999626159668,-4.311999797821045 -10.241999626159668,-4.311999797821045 C-10.241999626159668,-4.311999797821045 -10.241999626159668,4.311999797821045 -10.241999626159668,4.311999797821045z"></path></g></g><g transform="matrix(28.6299991607666,0,0,28.6299991607666,540.0016479492188,539.9990234375)" opacity="1" style="display: block;"><g opacity="1" transform="matrix(1,0,0,1,0,0)"><path fill="rgb(92,255,79)" fill-opacity="1" d=" M-8.836000442504883,-2.9059998989105225 C-8.836000442504883,-2.9059998989105225 6.164000034332275,-2.9059998989105225 6.164000034332275,-2.9059998989105225 C6.164000034332275,-2.9059998989105225 6.164000034332275,2.9059998989105225 6.164000034332275,2.9059998989105225 C6.164000034332275,2.9059998989105225 -8.836000442504883,2.9059998989105225 -8.836000442504883,2.9059998989105225 C-8.836000442504883,2.9059998989105225 -8.836000442504883,-2.9059998989105225 -8.836000442504883,-2.9059998989105225z"></path></g></g></g></svg>