<svg xmlns="http://www.w3.org/2000/svg" xmlns:xlink="http://www.w3.org/1999/xlink" viewBox="0 0 1080 1080" width="1080" height="1080" preserveAspectRatio="xMidYMid meet" style="width: 100%; height: 100%; transform: translate3d(0px, 0px, 0px); content-visibility: visible;"><defs><clipPath id="__lottie_element_144"><rect width="1080" height="1080" x="0" y="0"></rect></clipPath><clipPath id="__lottie_element_146"><path d="M0,0 L1080,0 L1080,1080 L0,1080z"></path></clipPath><clipPath id="__lottie_element_150"><path d="M0,0 L1080,0 L1080,1080 L0,1080z"></path></clipPath><mask id="__lottie_element_151"><rect fill="#ffffff" width="1080" height="1080" transform="matrix(1,0,0,1,0,0)"></rect><path fill="#000000" clip-rule="nonzero" d=" M412,328 C412,328 378,526 378,526 C378,526 726,528 726,528 C726,528 812,396 676,332 C540,268 412,328 412,328" fill-opacity="1"></path></mask></defs><g clip-path="url(#__lottie_element_144)"><g clip-path="url(#__lottie_element_146)" transform="matrix(1.0000026226043701,0,0,1.0000026226043701,-0.00140380859375,-0.00140380859375)" opacity="1" style="display: block;"><g transform="matrix(28.290000915527344,0,0,28.290000915527344,539.9873046875,540.010498046875)" opacity="1" style="display: block;"><g opacity="1" transform="matrix(1,0,0,1,0,0)"><path fill="rgb(92,255,79)" fill-opacity="1" d=" M-0.0010000000474974513,14.998000144958496 C-6.5,14.998000144958496 -11.786999702453613,9.711999893188477 -11.786999702453613,3.2130000591278076 C-11.786999702453613,-3.2860000133514404 -6.5,-8.572999954223633 -0.0010000000474974513,-8.572999954223633 C6.498000144958496,-8.572999954223633 11.784000396728516,-3.2860000133514404 11.784000396728516,3.2130000591278076 C11.784000396728516,9.711999893188477 6.498000144958496,14.998000144958496 -0.0010000000474974513,14.998000144958496z M-0.0010000000474974513,-7.98799991607666 C-6.177000045776367,-7.98799991607666 -11.201000213623047,-2.9630000591278076 -11.201000213623047,3.2130000591278076 C-11.201000213623047,9.387999534606934 -6.177000045776367,14.411999702453613 -0.0010000000474974513,14.411999702453613 C6.175000190734863,14.411999702453613 11.197999954223633,9.387999534606934 11.197999954223633,3.2130000591278076 C11.197999954223633,-2.9630000591278076 6.175000190734863,-7.98799991607666 -0.0010000000474974513,-7.98799991607666z"></path></g></g><g transform="matrix(28.290000915527344,0,0,28.290000915527344,540.0103149414062,539.999267578125)" opacity="1" style="display: block;"><g opacity="1" transform="matrix(1,0,0,1,0,0)"><path fill="rgb(92,255,79)" fill-opacity="1" d=" M-0.0010000000474974513,12.753000259399414 C-5.261000156402588,12.753000259399414 -9.539999961853027,8.472999572753906 -9.539999961853027,3.2130000591278076 C-9.539999961853027,-2.0480000972747803 -5.261000156402588,-6.327000141143799 -0.0010000000474974513,-6.327000141143799 C5.258999824523926,-6.327000141143799 9.538999557495117,-2.046999931335449 9.538999557495117,3.2130000591278076 C9.538999557495117,8.472999572753906 5.258999824523926,12.753000259399414 -0.0010000000474974513,12.753000259399414z M-0.0010000000474974513,-5.741000175476074 C-4.938000202178955,-5.741000175476074 -8.954000473022461,-1.7239999771118164 -8.954000473022461,3.2130000591278076 C-8.954000473022461,8.149999618530273 -4.938000202178955,12.166999816894531 -0.0010000000474974513,12.166999816894531 C4.935999870300293,12.166999816894531 8.95300006866455,8.149999618530273 8.95300006866455,3.2130000591278076 C8.95300006866455,-1.7239999771118164 4.935999870300293,-5.741000175476074 -0.0010000000474974513,-5.741000175476074z"></path></g></g><g transform="matrix(28.290000915527344,0,0,28.290000915527344,540.0016479492188,539.9868774414062)" opacity="1" style="display: block;"><g opacity="1" transform="matrix(1,0,0,1,0,0)"><path fill="rgb(92,255,79)" fill-opacity="1" d=" M4.357999801635742,-0.8539999723434448 C4.2829999923706055,-0.8539999723434448 4.208000183105469,-0.8820000290870667 4.151000022888184,-0.9390000104904175 C4.035999774932861,-1.0529999732971191 4.035999774932861,-1.2400000095367432 4.151000022888184,-1.3539999723434448 C4.151000022888184,-1.3539999723434448 4.926000118255615,-2.128999948501587 4.926000118255615,-2.128999948501587 C5.040999889373779,-2.243000030517578 5.2270002365112305,-2.243000030517578 5.341000080108643,-2.128999948501587 C5.455999851226807,-2.015000104904175 5.455999851226807,-1.8289999961853027 5.341000080108643,-1.715000033378601 C5.341000080108643,-1.715000033378601 4.565999984741211,-0.9390000104904175 4.565999984741211,-0.9390000104904175 C4.508999824523926,-0.8820000290870667 4.433000087738037,-0.8539999723434448 4.357999801635742,-0.8539999723434448z"></path></g></g><g transform="matrix(28.290000915527344,0,0,28.290000915527344,539.988525390625,539.9872436523438)" opacity="1" style="display: block;"><g opacity="1" transform="matrix(1,0,0,1,0,0)"><path fill="rgb(92,255,79)" fill-opacity="1" d=" M7.260000228881836,3.505000114440918 C7.260000228881836,3.505000114440918 6.163000106811523,3.505000114440918 6.163000106811523,3.505000114440918 C6.000999927520752,3.505000114440918 5.869999885559082,3.374000072479248 5.869999885559082,3.2119998931884766 C5.869999885559082,3.049999952316284 6.000999927520752,2.9200000762939453 6.163000106811523,2.9200000762939453 C6.163000106811523,2.9200000762939453 7.260000228881836,2.9200000762939453 7.260000228881836,2.9200000762939453 C7.421999931335449,2.9200000762939453 7.552999973297119,3.049999952316284 7.552999973297119,3.2119998931884766 C7.552999973297119,3.374000072479248 7.421999931335449,3.505000114440918 7.260000228881836,3.505000114440918z"></path></g></g><g transform="matrix(28.290000915527344,0,0,28.290000915527344,540.003662109375,540.0108642578125)" opacity="1" style="display: block;"><g opacity="1" transform="matrix(1,0,0,1,0,0)"><path fill="rgb(92,255,79)" fill-opacity="1" d=" M5.133999824523926,8.640000343322754 C5.059000015258789,8.640000343322754 4.982999801635742,8.611000061035156 4.926000118255615,8.553999900817871 C4.926000118255615,8.553999900817871 4.151000022888184,7.7779998779296875 4.151000022888184,7.7779998779296875 C4.035999774932861,7.664000034332275 4.035999774932861,7.479000091552734 4.151000022888184,7.363999843597412 C4.264999866485596,7.25 4.451000213623047,7.25 4.565999984741211,7.363999843597412 C4.565999984741211,7.363999843597412 5.341000080108643,8.140000343322754 5.341000080108643,8.140000343322754 C5.454999923706055,8.253999710083008 5.454999923706055,8.4399995803833 5.341000080108643,8.553999900817871 C5.283999919891357,8.611000061035156 5.209000110626221,8.640000343322754 5.133999824523926,8.640000343322754z"></path></g></g><g transform="matrix(28.290000915527344,0,0,28.290000915527344,539.997314453125,540.01171875)" opacity="1" style="display: block;"><g opacity="1" transform="matrix(1,0,0,1,0,0)"><path fill="rgb(92,255,79)" fill-opacity="1" d=" M-0.0010000000474974513,10.767000198364258 C-0.16300000250339508,10.767000198364258 -0.2939999997615814,10.63599967956543 -0.2939999997615814,10.473999977111816 C-0.2939999997615814,10.473999977111816 -0.2939999997615814,9.376999855041504 -0.2939999997615814,9.376999855041504 C-0.2939999997615814,9.21500015258789 -0.16300000250339508,9.083999633789062 -0.0010000000474974513,9.083999633789062 C0.16099999845027924,9.083999633789062 0.2919999957084656,9.21500015258789 0.2919999957084656,9.376999855041504 C0.2919999957084656,9.376999855041504 0.2919999957084656,10.473999977111816 0.2919999957084656,10.473999977111816 C0.2919999957084656,10.63599967956543 0.16099999845027924,10.767000198364258 -0.0010000000474974513,10.767000198364258z"></path></g></g><g transform="matrix(28.290000915527344,0,0,28.290000915527344,540.0069580078125,540.0079345703125)" opacity="1" style="display: block;"><g opacity="1" transform="matrix(1,0,0,1,0,0)"><path fill="rgb(92,255,79)" fill-opacity="1" d=" M-5.136000156402588,8.640000343322754 C-5.210999965667725,8.640000343322754 -5.284999847412109,8.611000061035156 -5.3420000076293945,8.553999900817871 C-5.456999778747559,8.4399995803833 -5.456999778747559,8.253999710083008 -5.3420000076293945,8.140000343322754 C-5.3420000076293945,8.140000343322754 -4.566999912261963,7.363999843597412 -4.566999912261963,7.363999843597412 C-4.452000141143799,7.25 -4.267000198364258,7.25 -4.1529998779296875,7.363999843597412 C-4.038000106811523,7.479000091552734 -4.038000106811523,7.664000034332275 -4.1529998779296875,7.7779998779296875 C-4.1529998779296875,7.7779998779296875 -4.927999973297119,8.553999900817871 -4.927999973297119,8.553999900817871 C-4.985000133514404,8.611000061035156 -5.060999870300293,8.640000343322754 -5.136000156402588,8.640000343322754z"></path></g></g><g transform="matrix(28.290000915527344,0,0,28.290000915527344,539.99609375,539.990234375)" opacity="1" style="display: block;"><g opacity="1" transform="matrix(1,0,0,1,0,0)"><path fill="rgb(92,255,79)" fill-opacity="1" d=" M-6.165999889373779,3.50600004196167 C-6.165999889373779,3.50600004196167 -7.263000011444092,3.50600004196167 -7.263000011444092,3.50600004196167 C-7.425000190734863,3.50600004196167 -7.556000232696533,3.375 -7.556000232696533,3.2130000591278076 C-7.556000232696533,3.0510001182556152 -7.425000190734863,2.9200000762939453 -7.263000011444092,2.9200000762939453 C-7.263000011444092,2.9200000762939453 -6.165999889373779,2.9200000762939453 -6.165999889373779,2.9200000762939453 C-6.004000186920166,2.9200000762939453 -5.873000144958496,3.0510001182556152 -5.873000144958496,3.2130000591278076 C-5.873000144958496,3.375 -6.004000186920166,3.50600004196167 -6.165999889373779,3.50600004196167z"></path></g></g><g transform="matrix(28.290000915527344,0,0,28.290000915527344,540.0059204101562,539.9868774414062)" opacity="1" style="display: block;"><g opacity="1" transform="matrix(1,0,0,1,0,0)"><path fill="rgb(92,255,79)" fill-opacity="1" d=" M-4.360000133514404,-0.8539999723434448 C-4.434999942779541,-0.8539999723434448 -4.510000228881836,-0.8820000290870667 -4.566999912261963,-0.9390000104904175 C-4.566999912261963,-0.9390000104904175 -5.3429999351501465,-1.715000033378601 -5.3429999351501465,-1.715000033378601 C-5.458000183105469,-1.8289999961853027 -5.458000183105469,-2.015000104904175 -5.3429999351501465,-2.128999948501587 C-5.229000091552734,-2.243000030517578 -5.043000221252441,-2.243000030517578 -4.927999973297119,-2.128999948501587 C-4.927999973297119,-2.128999948501587 -4.1529998779296875,-1.3539999723434448 -4.1529998779296875,-1.3539999723434448 C-4.038000106811523,-1.2400000095367432 -4.038000106811523,-1.0529999732971191 -4.1529998779296875,-0.9390000104904175 C-4.210000038146973,-0.8820000290870667 -4.284999847412109,-0.8539999723434448 -4.360000133514404,-0.8539999723434448z"></path></g></g><g transform="matrix(28.290000915527344,0,0,28.290000915527344,539.997314453125,540.0142822265625)" opacity="1" style="display: block;"><g opacity="1" transform="matrix(1,0,0,1,0,0)"><path fill="rgb(92,255,79)" fill-opacity="1" d=" M-0.0010000000474974513,-2.6589999198913574 C-0.16300000250339508,-2.6589999198913574 -0.2939999997615814,-2.7899999618530273 -0.2939999997615814,-2.9519999027252197 C-0.2939999997615814,-2.9519999027252197 -0.2939999997615814,-4.048999786376953 -0.2939999997615814,-4.048999786376953 C-0.2939999997615814,-4.210999965667725 -0.16300000250339508,-4.3420000076293945 -0.0010000000474974513,-4.3420000076293945 C0.16099999845027924,-4.3420000076293945 0.2919999957084656,-4.210999965667725 0.2919999957084656,-4.048999786376953 C0.2919999957084656,-4.048999786376953 0.2919999957084656,-2.9519999027252197 0.2919999957084656,-2.9519999027252197 C0.2919999957084656,-2.7899999618530273 0.16099999845027924,-2.6589999198913574 -0.0010000000474974513,-2.6589999198913574z"></path></g></g><g transform="matrix(28.290000915527344,0,0,28.290000915527344,540.0093383789062,540.0022583007812)" opacity="1" style="display: block;"></g><g transform="matrix(28.290000915527344,0,0,28.290000915527344,540.0093383789062,540.0022583007812)" opacity="1" style="display: block;"><g opacity="1" transform="matrix(1,0,0,1,0,0)"><path fill="rgb(92,255,79)" fill-opacity="1" d="M0 0"></path></g></g><g transform="matrix(28.290000915527344,0,0,28.290000915527344,539.9873046875,540.010498046875)" opacity="1" style="display: block;"><g opacity="1" transform="matrix(1,0,0,1,0,0)"><path fill="rgb(92,255,79)" fill-opacity="1" d=" M-0.0020000000949949026,4.872000217437744 C-0.29100000858306885,4.872000217437744 -0.578000009059906,4.794000148773193 -0.8299999833106995,4.64900016784668 C-1.2139999866485596,4.427999973297119 -1.4880000352859497,4.070000171661377 -1.6030000448226929,3.6419999599456787 C-1.718000054359436,3.2139999866485596 -1.6579999923706055,2.7669999599456787 -1.437000036239624,2.382999897003174 C-1.1419999599456787,1.871000051498413 -0.5910000205039978,1.5540000200271606 0,1.5540000200271606 C0.28999999165534973,1.5540000200271606 0.5759999752044678,1.6319999694824219 0.8289999961853027,1.7769999504089355 C1.621000051498413,2.234999895095825 1.8930000066757202,3.25 1.4359999895095825,4.041999816894531 C1.1399999856948853,4.553999900817871 0.5889999866485596,4.872000217437744 -0.0020000000949949026,4.872000217437744z M0,2.140000104904175 C-0.382999986410141,2.140000104904175 -0.7390000224113464,2.3450000286102295 -0.9300000071525574,2.6760001182556152 C-1.0740000009536743,2.924999952316284 -1.1109999418258667,3.2130000591278076 -1.0369999408721924,3.490000009536743 C-0.9629999995231628,3.7669999599456787 -0.7860000133514404,3.999000072479248 -0.5370000004768372,4.142000198364258 C-0.37400001287460327,4.236000061035156 -0.1889999955892563,4.285999774932861 -0.0020000000949949026,4.285999774932861 C0.38100001215934753,4.285999774932861 0.7360000014305115,4.079999923706055 0.9279999732971191,3.749000072479248 C1.2230000495910645,3.236999988555908 1.0479999780654907,2.5799999237060547 0.5350000262260437,2.2839999198913574 C0.3720000088214874,2.190000057220459 0.18700000643730164,2.140000104904175 0,2.140000104904175z"></path></g></g><g transform="matrix(28.290000915527344,0,0,28.290000915527344,539.9873046875,540.010498046875)" opacity="1" style="display: block;"><g opacity="1" transform="matrix(1,0,0,1,0,0)"><path fill="rgb(92,255,79)" fill-opacity="1" d=" M0.6819999814033508,2.322999954223633 C0.6320000290870667,2.322999954223633 0.5820000171661377,2.311000108718872 0.5360000133514404,2.2839999198913574 C0.3959999978542328,2.203000068664551 0.3479999899864197,2.0239999294281006 0.42899999022483826,1.8839999437332153 C0.42899999022483826,1.8839999437332153 1.5110000371932983,0.008999999612569809 1.5110000371932983,0.008999999612569809 C1.5920000076293945,-0.13099999725818634 1.7710000276565552,-0.17900000512599945 1.9110000133514404,-0.09799999743700027 C2.0510001182556152,-0.017000000923871994 2.0989999771118164,0.16099999845027924 2.0179998874664307,0.3019999861717224 C2.0179998874664307,0.3019999861717224 0.9359999895095825,2.177000045776367 0.9359999895095825,2.177000045776367 C0.8809999823570251,2.2709999084472656 0.7829999923706055,2.322999954223633 0.6819999814033508,2.322999954223633z"></path></g></g><g transform="matrix(28.290000915527344,0,0,28.290000915527344,539.9873046875,540.010498046875)" opacity="1" style="display: block;"><g opacity="1" transform="matrix(1,0,0,1,0,0)"><path fill="rgb(92,255,79)" fill-opacity="1" d=" M2.183000087738037,1.7389999628067017 C2.059000015258789,1.7389999628067017 1.944000005722046,1.659999966621399 1.9040000438690186,1.5360000133514404 C1.9040000438690186,1.5360000133514404 1.5679999589920044,0.4970000088214874 1.5679999589920044,0.4970000088214874 C1.5679999589920044,0.4970000088214874 0.49900001287460327,0.7250000238418579 0.49900001287460327,0.7250000238418579 C0.3409999907016754,0.7590000033378601 0.1850000023841858,0.6579999923706055 0.15199999511241913,0.5 C0.11800000071525574,0.34200000762939453 0.21899999678134918,0.1860000044107437 0.37700000405311584,0.15199999511241913 C0.37700000405311584,0.15199999511241913 1.7039999961853027,-0.13099999725818634 1.7039999961853027,-0.13099999725818634 C1.8519999980926514,-0.16300000250339508 1.9980000257492065,-0.07800000160932541 2.0439999103546143,0.06499999761581421 C2.0439999103546143,0.06499999761581421 2.4619998931884766,1.3559999465942383 2.4619998931884766,1.3559999465942383 C2.51200008392334,1.5099999904632568 2.427000045776367,1.6740000247955322 2.2730000019073486,1.7239999771118164 C2.242000102996826,1.7339999675750732 2.2119998931884766,1.7389999628067017 2.183000087738037,1.7389999628067017z"></path></g></g><g transform="matrix(28.290000915527344,0,0,28.290000915527344,539.9873046875,540.010498046875)" opacity="1" style="display: block;"><g opacity="1" transform="matrix(1,0,0,1,0,0)"><path fill="rgb(92,255,79)" fill-opacity="1" d=" M-1.7669999599456787,6.564000129699707 C-1.8170000314712524,6.564000129699707 -1.8669999837875366,6.551000118255615 -1.9129999876022339,6.525000095367432 C-2.052999973297119,6.443999767303467 -2.1010000705718994,6.264999866485596 -2.0199999809265137,6.125 C-2.0199999809265137,6.125 -0.9369999766349792,4.249000072479248 -0.9369999766349792,4.249000072479248 C-0.8560000061988831,4.109000205993652 -0.6769999861717224,4.060999870300293 -0.5370000004768372,4.142000198364258 C-0.3970000147819519,4.2230000495910645 -0.3490000069141388,4.4019999504089355 -0.4300000071525574,4.541999816894531 C-0.4300000071525574,4.541999816894531 -1.5119999647140503,6.418000221252441 -1.5119999647140503,6.418000221252441 C-1.5670000314712524,6.51200008392334 -1.6660000085830688,6.564000129699707 -1.7669999599456787,6.564000129699707z"></path></g></g><g transform="matrix(28.290000915527344,0,0,28.290000915527344,539.9873046875,540.010498046875)" opacity="1" style="display: block;"><g opacity="1" transform="matrix(1,0,0,1,0,0)"><path fill="rgb(92,255,79)" fill-opacity="1" d=" M-1.7669999599456787,6.564000129699707 C-1.8910000324249268,6.564000129699707 -2.005000114440918,6.484000205993652 -2.0450000762939453,6.361000061035156 C-2.0450000762939453,6.361000061035156 -2.4630000591278076,5.071000099182129 -2.4630000591278076,5.071000099182129 C-2.513000011444092,4.916999816894531 -2.427999973297119,4.751999855041504 -2.2739999294281006,4.702000141143799 C-2.119999885559082,4.6519999504089355 -1.9559999704360962,4.736000061035156 -1.906000018119812,4.889999866485596 C-1.906000018119812,4.889999866485596 -1.569000005722046,5.929999828338623 -1.569000005722046,5.929999828338623 C-1.569000005722046,5.929999828338623 -0.5009999871253967,5.701000213623047 -0.5009999871253967,5.701000213623047 C-0.34299999475479126,5.666999816894531 -0.1860000044107437,5.76800012588501 -0.15299999713897705,5.927000045776367 C-0.11900000274181366,6.085000038146973 -0.2199999988079071,6.239999771118164 -0.3779999911785126,6.27400016784668 C-0.3779999911785126,6.27400016784668 -1.7050000429153442,6.558000087738037 -1.7050000429153442,6.558000087738037 C-1.7259999513626099,6.561999797821045 -1.746000051498413,6.564000129699707 -1.7669999599456787,6.564000129699707z"></path></g></g><g clip-path="url(#__lottie_element_150)" transform="matrix(1,0,0,1,0,0)" opacity="1" style="display: block;"><g mask="url(#__lottie_element_151)"><g transform="matrix(28.290000915527344,0,0,28.290000915527344,540.0103149414062,539.9961547851562)" opacity="1" style="display: block;"><g opacity="1" transform="matrix(1,0,0,1,0,0)"><path fill="rgb(92,255,79)" fill-opacity="1" d=" M0.9909999966621399,-7.943999767303467 C0.9829999804496765,-7.943999767303467 0.9750000238418579,-7.943999767303467 0.9660000205039978,-7.945000171661377 C0.6389999985694885,-7.9730000495910645 0.3140000104904175,-7.98799991607666 -0.0010000000474974513,-7.98799991607666 C-0.3160000145435333,-7.98799991607666 -0.6420000195503235,-7.9730000495910645 -0.968999981880188,-7.945000171661377 C-1.0499999523162842,-7.936999797821045 -1.1319999694824219,-7.966000080108643 -1.1920000314712524,-8.022000312805176 C-1.2519999742507935,-8.07699966430664 -1.2869999408721924,-8.154999732971191 -1.2869999408721924,-8.237000465393066 C-1.2869999408721924,-8.237000465393066 -1.2869999408721924,-12.14799976348877 -1.2869999408721924,-12.14799976348877 C-1.2869999408721924,-12.3100004196167 -1.156000018119812,-12.440999984741211 -0.9940000176429749,-12.440999984741211 C-0.9940000176429749,-12.440999984741211 0.9909999966621399,-12.440999984741211 0.9909999966621399,-12.440999984741211 C1.152999997138977,-12.440999984741211 1.284000039100647,-12.3100004196167 1.284000039100647,-12.14799976348877 C1.284000039100647,-12.14799976348877 1.284000039100647,-8.237000465393066 1.284000039100647,-8.237000465393066 C1.284000039100647,-8.154999732971191 1.2489999532699585,-8.07699966430664 1.1890000104904175,-8.022000312805176 C1.1339999437332153,-7.9720001220703125 1.0640000104904175,-7.943999767303467 0.9909999966621399,-7.943999767303467z M-0.7009999752044678,-11.854999542236328 C-0.7009999752044678,-11.854999542236328 -0.7009999752044678,-8.552000045776367 -0.7009999752044678,-8.552000045776367 C-0.2290000021457672,-8.579999923706055 0.22599999606609344,-8.579999923706055 0.6980000138282776,-8.552000045776367 C0.6980000138282776,-8.552000045776367 0.6980000138282776,-11.854999542236328 0.6980000138282776,-11.854999542236328 C0.6980000138282776,-11.854999542236328 -0.7009999752044678,-11.854999542236328 -0.7009999752044678,-11.854999542236328z"></path></g></g><g transform="matrix(28.290000915527344,0,0,28.290000915527344,540.0103149414062,539.9961547851562)" opacity="1" style="display: block;"><g opacity="1" transform="matrix(1,0,0,1,0,0)"><path fill="rgb(92,255,79)" fill-opacity="1" d=" M4.2129998207092285,-11.854999542236328 C4.2129998207092285,-11.854999542236328 -4.214000225067139,-11.854999542236328 -4.214000225067139,-11.854999542236328 C-4.375999927520752,-11.854999542236328 -4.506999969482422,-11.986000061035156 -4.506999969482422,-12.14799976348877 C-4.506999969482422,-12.14799976348877 -4.506999969482422,-14.708000183105469 -4.506999969482422,-14.708000183105469 C-4.506999969482422,-14.869999885559082 -4.375999927520752,-15.00100040435791 -4.214000225067139,-15.00100040435791 C-4.214000225067139,-15.00100040435791 4.2129998207092285,-15.00100040435791 4.2129998207092285,-15.00100040435791 C4.375,-15.00100040435791 4.50600004196167,-14.869999885559082 4.50600004196167,-14.708000183105469 C4.50600004196167,-14.708000183105469 4.50600004196167,-12.14799976348877 4.50600004196167,-12.14799976348877 C4.50600004196167,-11.986000061035156 4.375,-11.854999542236328 4.2129998207092285,-11.854999542236328z M-3.9210000038146973,-12.440999984741211 C-3.9210000038146973,-12.440999984741211 3.9200000762939453,-12.440999984741211 3.9200000762939453,-12.440999984741211 C3.9200000762939453,-12.440999984741211 3.9200000762939453,-14.414999961853027 3.9200000762939453,-14.414999961853027 C3.9200000762939453,-14.414999961853027 -3.9210000038146973,-14.414999961853027 -3.9210000038146973,-14.414999961853027 C-3.9210000038146973,-14.414999961853027 -3.9210000038146973,-12.440999984741211 -3.9210000038146973,-12.440999984741211z"></path></g></g></g></g></g></g></svg>