<svg xmlns="http://www.w3.org/2000/svg" xmlns:xlink="http://www.w3.org/1999/xlink" viewBox="0 0 1080 1080" width="1080" height="1080" preserveAspectRatio="xMidYMid meet" style="width: 100%; height: 100%; transform: translate3d(0px, 0px, 0px); content-visibility: visible;"><defs><clipPath id="__lottie_element_256"><rect width="1080" height="1080" x="0" y="0"></rect></clipPath><clipPath id="__lottie_element_258"><path d="M0,0 L1080,0 L1080,1080 L0,1080z"></path></clipPath><mask id="__lottie_element_259"><rect fill="#ffffff" width="1080" height="1080" transform="matrix(1.6949152946472168,0,0,1.6949152946472168,-243.0509033203125,255.25421142578125)"></rect><path fill="#000000" clip-rule="nonzero" d=" M828.135986328125,468.8139953613281 C828.135986328125,468.8139953613281 384.0679931640625,478.9830017089844 384.0679931640625,478.9830017089844 C384.0679931640625,478.9830017089844 373.89801025390625,1075.593017578125 373.89801025390625,1075.593017578125 C373.89801025390625,1075.593017578125 828.135986328125,1068.81396484375 828.135986328125,1068.81396484375 C828.135986328125,1068.81396484375 828.135986328125,468.8139953613281 828.135986328125,468.8139953613281" fill-opacity="1"></path></mask><clipPath id="__lottie_element_289"><path d="M0,0 L1080,0 L1080,1080 L0,1080z"></path></clipPath><mask id="__lottie_element_290"><rect fill="#ffffff" width="1080" height="1080" transform="matrix(1,0,0,1,0,0)"></rect><path fill="#000000" clip-rule="nonzero" d=" M656,240 C656,240 362,472 362,472 C362,472 390,800 662,920 C934,1040 656,240 656,240" fill-opacity="1"></path></mask></defs><g clip-path="url(#__lottie_element_256)"><g transform="matrix(30.889999389648438,0,0,30.889999389648438,539.9898681640625,540.0044555664062)" opacity="1" style="display: block;"><g opacity="1" transform="matrix(1,0,0,1,0,0)"><path fill="rgb(92,255,79)" fill-opacity="1" d=" M-1.3389999866485596,1.8070000410079956 C-1.4259999990463257,1.840000033378601 -1.496999979019165,1.906999945640564 -1.534999966621399,1.9919999837875366 C-1.5729999542236328,2.0769999027252197 -1.5750000476837158,2.1740000247955322 -1.5420000553131104,2.260999917984009 C-1.5099999904632568,2.3459999561309814 -1.4769999980926514,2.430999994277954 -1.4429999589920044,2.515000104904175 C-1.4079999923706055,2.6010000705718994 -1.340000033378601,2.6700000762939453 -1.253999948501587,2.7060000896453857 C-1.2120000123977661,2.7239999771118164 -1.1649999618530273,2.7339999675750732 -1.11899995803833,2.7339999675750732 C-1.0729999542236328,2.7339999675750732 -1.027999997138977,2.7249999046325684 -0.9850000143051147,2.7079999446868896 C-0.9419999718666077,2.690999984741211 -0.902999997138977,2.6649999618530273 -0.8700000047683716,2.632999897003174 C-0.8370000123977661,2.5999999046325684 -0.8109999895095825,2.561000108718872 -0.7929999828338623,2.5190000534057617 C-0.7749999761581421,2.4769999980926514 -0.7649999856948853,2.430999994277954 -0.7649999856948853,2.384999990463257 C-0.7649999856948853,2.3389999866485596 -0.7739999890327454,2.2929999828338623 -0.7910000085830688,2.25 C-0.8230000138282776,2.1710000038146973 -0.8539999723434448,2.0910000801086426 -0.8849999904632568,2.010999917984009 C-0.9010000228881836,1.968000054359436 -0.9259999990463257,1.9290000200271606 -0.9580000042915344,1.8949999809265137 C-0.9900000095367432,1.8609999418258667 -1.027999997138977,1.8339999914169312 -1.0700000524520874,1.815000057220459 C-1.1119999885559082,1.7960000038146973 -1.1579999923706055,1.784999966621399 -1.2039999961853027,1.784000039100647 C-1.25,1.7829999923706055 -1.2960000038146973,1.7910000085830688 -1.3389999866485596,1.8070000410079956z"></path></g></g><g transform="matrix(30.889999389648438,0,0,30.889999389648438,540.0144653320312,540.009521484375)" opacity="1" style="display: block;"><g opacity="1" transform="matrix(1,0,0,1,0,0)"><path fill="rgb(92,255,79)" fill-opacity="1" d=" M-0.5770000219345093,3.5420000553131104 C-0.6579999923706055,3.5889999866485596 -0.7170000076293945,3.6649999618530273 -0.7409999966621399,3.755000114440918 C-0.7649999856948853,3.8450000286102295 -0.753000020980835,3.940999984741211 -0.7059999704360962,4.021999835968018 C-0.1589999943971634,4.9710001945495605 0.5120000243186951,5.8429999351501465 1.2910000085830688,6.613999843597412 C1.3569999933242798,6.679999828338623 1.4470000267028809,6.716000080108643 1.5399999618530273,6.716000080108643 C1.6330000162124634,6.715000152587891 1.722000002861023,6.677000045776367 1.7879999876022339,6.611000061035156 C1.8539999723434448,6.545000076293945 1.8910000324249268,6.454999923706055 1.8899999856948853,6.361999988555908 C1.8899999856948853,6.269000053405762 1.8519999980926514,6.179999828338623 1.7860000133514404,6.113999843597412 C1.0520000457763672,5.38700008392334 0.4189999997615814,4.565999984741211 -0.09700000286102295,3.6710000038146973 C-0.11999999731779099,3.63100004196167 -0.15000000596046448,3.5959999561309814 -0.18700000643730164,3.568000078201294 C-0.2240000069141388,3.5399999618530273 -0.26499998569488525,3.5190000534057617 -0.3100000023841858,3.506999969482422 C-0.35499998927116394,3.494999885559082 -0.4009999930858612,3.492000102996826 -0.44699999690055847,3.497999906539917 C-0.49300000071525574,3.503999948501587 -0.5370000004768372,3.5190000534057617 -0.5770000219345093,3.5420000553131104z"></path></g></g><g transform="matrix(30.889999389648438,0,0,30.889999389648438,539.9890747070312,540.0109252929688)" opacity="1" style="display: block;"><g opacity="1" transform="matrix(1,0,0,1,0,0)"><path fill="rgb(92,255,79)" fill-opacity="1" d=" M5.373000144958496,-7.224999904632568 C5.373000144958496,-7.224999904632568 2.9179999828338623,-7.224999904632568 2.9179999828338623,-7.224999904632568 C2.825000047683716,-7.224999904632568 2.734999895095825,-7.188000202178955 2.6689999103546143,-7.122000217437744 C2.6029999256134033,-7.056000232696533 2.565999984741211,-6.9670000076293945 2.565999984741211,-6.874000072479248 C2.565999984741211,-6.874000072479248 2.565999984741211,-3.825000047683716 2.565999984741211,-3.825000047683716 C2.565999984741211,-3.825000047683716 -0.4819999933242798,-3.825000047683716 -0.4819999933242798,-3.825000047683716 C-0.574999988079071,-3.825000047683716 -0.6650000214576721,-3.7880001068115234 -0.7310000061988831,-3.7219998836517334 C-0.796999990940094,-3.6559998989105225 -0.8339999914169312,-3.565999984741211 -0.8339999914169312,-3.4730000495910645 C-0.8339999914169312,-3.4730000495910645 -0.8339999914169312,-1.0180000066757202 -0.8339999914169312,-1.0180000066757202 C-0.8339999914169312,-0.925000011920929 -0.796999990940094,-0.8349999785423279 -0.7310000061988831,-0.7689999938011169 C-0.6650000214576721,-0.703000009059906 -0.574999988079071,-0.6660000085830688 -0.4819999933242798,-0.6660000085830688 C-0.4819999933242798,-0.6660000085830688 2.565999984741211,-0.6660000085830688 2.565999984741211,-0.6660000085830688 C2.565999984741211,-0.6660000085830688 2.565999984741211,2.381999969482422 2.565999984741211,2.381999969482422 C2.565999984741211,2.4749999046325684 2.6029999256134033,2.565000057220459 2.6689999103546143,2.63100004196167 C2.734999895095825,2.697000026702881 2.825000047683716,2.7339999675750732 2.9179999828338623,2.7339999675750732 C2.9179999828338623,2.7339999675750732 5.374000072479248,2.7339999675750732 5.374000072479248,2.7339999675750732 C5.4670000076293945,2.7339999675750732 5.556000232696533,2.697000026702881 5.622000217437744,2.63100004196167 C5.688000202178955,2.565000057220459 5.724999904632568,2.4749999046325684 5.724999904632568,2.381999969482422 C5.724999904632568,2.381999969482422 5.724999904632568,-0.6660000085830688 5.724999904632568,-0.6660000085830688 C5.724999904632568,-0.6660000085830688 8.77400016784668,-0.6660000085830688 8.77400016784668,-0.6660000085830688 C8.866999626159668,-0.6660000085830688 8.956000328063965,-0.703000009059906 9.022000312805176,-0.7689999938011169 C9.088000297546387,-0.8349999785423279 9.125,-0.925000011920929 9.125,-1.0180000066757202 C9.125,-1.0180000066757202 9.125,-3.4730000495910645 9.125,-3.4730000495910645 C9.125,-3.565999984741211 9.088000297546387,-3.6559998989105225 9.022000312805176,-3.7219998836517334 C8.956000328063965,-3.7880001068115234 8.866999626159668,-3.825000047683716 8.77400016784668,-3.825000047683716 C8.77400016784668,-3.825000047683716 5.724999904632568,-3.825000047683716 5.724999904632568,-3.825000047683716 C5.724999904632568,-3.825000047683716 5.724999904632568,-6.874000072479248 5.724999904632568,-6.874000072479248 C5.724999904632568,-6.9670000076293945 5.688000202178955,-7.056000232696533 5.622000217437744,-7.122000217437744 C5.556000232696533,-7.188000202178955 5.466000080108643,-7.224999904632568 5.373000144958496,-7.224999904632568z M8.42199993133545,-3.121999979019165 C8.42199993133545,-3.121999979019165 8.42199993133545,-1.36899995803833 8.42199993133545,-1.36899995803833 C8.42199993133545,-1.36899995803833 5.373000144958496,-1.36899995803833 5.373000144958496,-1.36899995803833 C5.28000020980835,-1.36899995803833 5.190999984741211,-1.3320000171661377 5.125,-1.2660000324249268 C5.059000015258789,-1.2000000476837158 5.021999835968018,-1.1109999418258667 5.021999835968018,-1.0180000066757202 C5.021999835968018,-1.0180000066757202 5.021999835968018,2.0309998989105225 5.021999835968018,2.0309998989105225 C5.021999835968018,2.0309998989105225 3.2699999809265137,2.0309998989105225 3.2699999809265137,2.0309998989105225 C3.2699999809265137,2.0309998989105225 3.2699999809265137,-1.0180000066757202 3.2699999809265137,-1.0180000066757202 C3.2699999809265137,-1.1109999418258667 3.2330000400543213,-1.2000000476837158 3.1670000553131104,-1.2660000324249268 C3.1010000705718994,-1.3320000171661377 3.010999917984009,-1.36899995803833 2.9179999828338623,-1.36899995803833 C2.9179999828338623,-1.36899995803833 -0.13099999725818634,-1.36899995803833 -0.13099999725818634,-1.36899995803833 C-0.13099999725818634,-1.36899995803833 -0.13099999725818634,-3.121999979019165 -0.13099999725818634,-3.121999979019165 C-0.13099999725818634,-3.121999979019165 2.9179999828338623,-3.121999979019165 2.9179999828338623,-3.121999979019165 C3.010999917984009,-3.121999979019165 3.1010000705718994,-3.1589999198913574 3.1670000553131104,-3.2249999046325684 C3.2330000400543213,-3.2909998893737793 3.2699999809265137,-3.380000114440918 3.2699999809265137,-3.4730000495910645 C3.2699999809265137,-3.4730000495910645 3.2699999809265137,-6.521999835968018 3.2699999809265137,-6.521999835968018 C3.2699999809265137,-6.521999835968018 5.021999835968018,-6.521999835968018 5.021999835968018,-6.521999835968018 C5.021999835968018,-6.521999835968018 5.021999835968018,-3.4730000495910645 5.021999835968018,-3.4730000495910645 C5.021999835968018,-3.380000114440918 5.059000015258789,-3.2909998893737793 5.125,-3.2249999046325684 C5.190999984741211,-3.1589999198913574 5.281000137329102,-3.121999979019165 5.374000072479248,-3.121999979019165 C5.374000072479248,-3.121999979019165 8.42199993133545,-3.121999979019165 8.42199993133545,-3.121999979019165z"></path></g></g><g transform="matrix(30.889999389648438,0,0,30.889999389648438,540.0004272460938,539.9882202148438)" opacity="1" style="display: block;"><g opacity="1" transform="matrix(1,0,0,1,0,0)"><path fill="rgb(92,255,79)" fill-opacity="1" d=" M2.2809998989105225,9.609999656677246 C2.2809998989105225,9.609999656677246 4.065000057220459,10.633000373840332 4.065000057220459,10.633000373840332 C4.118000030517578,10.663999557495117 4.178999900817871,10.678999900817871 4.239999771118164,10.678999900817871 C4.301000118255615,10.678999900817871 4.361999988555908,10.663999557495117 4.414999961853027,10.633000373840332 C4.414999961853027,10.633000373840332 6.198999881744385,9.609999656677246 6.198999881744385,9.609999656677246 C8.071000099182129,8.534000396728516 9.62600040435791,6.985000133514404 10.708000183105469,5.118000030517578 C11.789999961853027,3.250999927520752 12.362000465393066,1.1299999952316284 12.364999771118164,-1.027999997138977 C12.364999771118164,-1.027999997138977 12.364999771118164,-11.324000358581543 12.364999771118164,-11.324000358581543 C12.364999771118164,-11.416999816894531 12.32800006866455,-11.506999969482422 12.26200008392334,-11.572999954223633 C12.196000099182129,-11.638999938964844 12.105999946594238,-11.675999641418457 12.012999534606934,-11.675999641418457 C12.012999534606934,-11.675999641418457 -3.5329999923706055,-11.675999641418457 -3.5329999923706055,-11.675999641418457 C-3.625999927520752,-11.675999641418457 -3.7160000801086426,-11.638999938964844 -3.7820000648498535,-11.572999954223633 C-3.8480000495910645,-11.506999969482422 -3.884999990463257,-11.416999816894531 -3.884999990463257,-11.324000358581543 C-3.884999990463257,-11.324000358581543 -3.884999990463257,-9.258000373840332 -3.884999990463257,-9.258000373840332 C-3.884999990463257,-9.211999893188477 -3.875999927520752,-9.166000366210938 -3.8580000400543213,-9.123000144958496 C-3.8399999141693115,-9.079999923706055 -3.815000057220459,-9.041999816894531 -3.7820000648498535,-9.008999824523926 C-3.749000072479248,-8.97599983215332 -3.7109999656677246,-8.951000213623047 -3.6679999828338623,-8.932999610900879 C-3.625,-8.914999961853027 -3.5789999961853027,-8.906000137329102 -3.5329999923706055,-8.906000137329102 C-3.486999988555908,-8.906000137329102 -3.441999912261963,-8.914999961853027 -3.3989999294281006,-8.932999610900879 C-3.3559999465942383,-8.951000213623047 -3.318000078201294,-8.97599983215332 -3.2850000858306885,-9.008999824523926 C-3.252000093460083,-9.041999816894531 -3.2260000705718994,-9.079999923706055 -3.2079999446868896,-9.123000144958496 C-3.190000057220459,-9.166000366210938 -3.181999921798706,-9.211999893188477 -3.181999921798706,-9.258000373840332 C-3.181999921798706,-9.258000373840332 -3.181999921798706,-10.972999572753906 -3.181999921798706,-10.972999572753906 C-3.181999921798706,-10.972999572753906 11.661999702453613,-10.972999572753906 11.661999702453613,-10.972999572753906 C11.661999702453613,-10.972999572753906 11.661999702453613,-1.027999997138977 11.661999702453613,-1.027999997138977 C11.659000396728516,1.0069999694824219 11.119999885559082,3.00600004196167 10.100000381469727,4.765999794006348 C9.079999923706055,6.526000022888184 7.613999843597412,7.986000061035156 5.849999904632568,9 C5.849999904632568,9 4.239999771118164,9.92300033569336 4.239999771118164,9.92300033569336 C4.239999771118164,9.92300033569336 2.630000114440918,9 2.630000114440918,9 C0.8659999966621399,7.986000061035156 -0.6000000238418579,6.526000022888184 -1.6200000047683716,4.765999794006348 C-2.640000104904175,3.00600004196167 -3.178999900817871,1.0069999694824219 -3.181999921798706,-1.027999997138977 C-3.181999921798706,-1.027999997138977 -3.181999921798706,-6.328000068664551 -3.181999921798706,-6.328000068664551 C-3.181999921798706,-6.421000003814697 -3.2190001010894775,-6.511000156402588 -3.2850000858306885,-6.577000141143799 C-3.3510000705718994,-6.64300012588501 -3.440000057220459,-6.679999828338623 -3.5329999923706055,-6.679999828338623 C-3.625999927520752,-6.679999828338623 -3.7160000801086426,-6.64300012588501 -3.7820000648498535,-6.577000141143799 C-3.8480000495910645,-6.511000156402588 -3.884999990463257,-6.421000003814697 -3.884999990463257,-6.328000068664551 C-3.884999990463257,-6.328000068664551 -3.884999990463257,-1.027999997138977 -3.884999990463257,-1.027999997138977 C-3.881999969482422,1.1299999952316284 -3.309999942779541,3.250999927520752 -2.2279999256134033,5.118000030517578 C-1.1460000276565552,6.985000133514404 0.4090000092983246,8.53499984741211 2.2809998989105225,9.609999656677246z"></path></g></g><g transform="matrix(30.889999389648438,0,0,30.889999389648438,540.0009765625,539.9970092773438)" opacity="1" style="display: block;"><g opacity="1" transform="matrix(1,0,0,1,0,0)"><path fill="rgb(92,255,79)" fill-opacity="1" d=" M14.062000274658203,-13.694999694824219 C14.062000274658203,-13.694999694824219 -5.581999778747559,-13.694999694824219 -5.581999778747559,-13.694999694824219 C-5.675000190734863,-13.694999694824219 -5.764999866485596,-13.657999992370605 -5.830999851226807,-13.592000007629395 C-5.896999835968018,-13.526000022888184 -5.934000015258789,-13.435999870300293 -5.934000015258789,-13.343000411987305 C-5.934000015258789,-13.343000411987305 -5.934000015258789,-12.78499984741211 -5.934000015258789,-12.78499984741211 C-5.934000015258789,-12.78499984741211 -6.0960001945495605,-3.3980000019073486 -6.0960001945495605,-3.3980000019073486 C-6.0960001945495605,-3.3980000019073486 -6.0960001945495605,-2.2260000705718994 -6.0960001945495605,-2.2260000705718994 C-6.0960001945495605,-1.9299999475479126 -6.054999828338623,-1.6349999904632568 -6.038000106811523,-1.340000033378601 C-6.038000106811523,-1.340000033378601 -5.892000198364258,3.302000045776367 -2.263000011444092,7.953000068664551 C-0.8389999866485596,9.677000045776367 0.9300000071525574,11.083999633789062 2.930000066757202,12.083999633789062 C2.930000066757202,12.083999633789062 4.083000183105469,12.66100025177002 4.083000183105469,12.66100025177002 C4.131999969482422,12.6850004196167 4.184999942779541,12.697999954223633 4.239999771118164,12.697999954223633 C4.295000076293945,12.697999954223633 4.3480000495910645,12.6850004196167 4.396999835968018,12.66100025177002 C4.396999835968018,12.66100025177002 5.550000190734863,12.083999633789062 5.550000190734863,12.083999633789062 C8.21399974822998,10.751999855041504 10.45300006866455,8.704999923706055 12.019000053405762,6.171999931335449 C13.585000038146973,3.6389999389648438 14.413999557495117,0.7200000286102295 14.413999557495117,-2.257999897003174 C14.413999557495117,-2.257999897003174 14.413999557495117,-13.343000411987305 14.413999557495117,-13.343000411987305 C14.413999557495117,-13.435999870300293 14.376999855041504,-13.526000022888184 14.310999870300293,-13.592000007629395 C14.244999885559082,-13.657999992370605 14.154999732971191,-13.694999694824219 14.062000274658203,-13.694999694824219z M13.711000442504883,-2.257999897003174 C13.711000442504883,0.5889999866485596 12.918000221252441,3.38100004196167 11.420999526977539,5.802999973297119 C9.923999786376953,8.225000381469727 7.7820000648498535,10.182999610900879 5.235000133514404,11.456000328063965 C5.235000133514404,11.456000328063965 4.239999771118164,11.95300006866455 4.239999771118164,11.95300006866455 C4.239999771118164,11.95300006866455 3.244999885559082,11.456000328063965 3.244999885559082,11.456000328063965 C0.6980000138282776,10.182999610900879 -1.444000005722046,8.225000381469727 -2.940999984741211,5.802999973297119 C-4.438000202178955,3.38100004196167 -5.230999946594238,0.5889999866485596 -5.230999946594238,-2.257999897003174 C-5.230999946594238,-2.257999897003174 -5.230999946594238,-12.991999626159668 -5.230999946594238,-12.991999626159668 C-5.230999946594238,-12.991999626159668 13.711000442504883,-12.991999626159668 13.711000442504883,-12.991999626159668 C13.711000442504883,-12.991999626159668 13.711000442504883,-2.257999897003174 13.711000442504883,-2.257999897003174z"></path></g></g><g clip-path="url(#__lottie_element_289)" transform="matrix(1,0,0,1,0,0)" opacity="1" style="display: block;"><g mask="url(#__lottie_element_290)"><g transform="matrix(0,1,-1,0,518,939)" opacity="1" style="display: block;"><g opacity="1" transform="matrix(1.044700026512146,0,0,1.044700026512146,-210.5,188.5)"><path stroke-linecap="butt" stroke-linejoin="miter" fill-opacity="0" stroke-miterlimit="4" stroke="rgb(91,255,79)" stroke-opacity="1" stroke-width="21" d=" M0,-133.5 C73.67864990234375,-133.5 133.5,-73.67864990234375 133.5,0 C133.5,73.67864990234375 73.67864990234375,133.5 0,133.5 C-73.67864990234375,133.5 -133.5,73.67864990234375 -133.5,0 C-133.5,-73.67864990234375 -73.67864990234375,-133.5 0,-133.5z"></path></g></g><g transform="matrix(0,-1,1,0,352,289)" opacity="1" style="display: block;"><g opacity="1" transform="matrix(1,0,0,1,0,0)"><path stroke-linecap="round" stroke-linejoin="miter" fill-opacity="0" stroke-miterlimit="4" stroke="rgb(91,255,79)" stroke-opacity="1" stroke-width="21" d=" M-440,-232 C-440,-232 -440,-165 -440,-165"></path></g><g opacity="1" transform="matrix(1,0,0,1,0,0)"><path stroke-linecap="round" stroke-linejoin="miter" fill-opacity="0" stroke-miterlimit="4" stroke="rgb(91,255,79)" stroke-opacity="1" stroke-width="21" d=" M-482,-246 C-482,-246 -393,-246 -393,-246"></path></g></g><g transform="matrix(0.7071067690849304,-0.7071067690849304,0.7071067690849304,0.7071067690849304,654.2415771484375,434.3423767089844)" opacity="1" style="display: block;"><g opacity="1" transform="matrix(1,0,0,1,0,0)"><path stroke-linecap="round" stroke-linejoin="miter" fill-opacity="0" stroke-miterlimit="4" stroke="rgb(91,255,79)" stroke-opacity="1" stroke-width="21" d=" M-440,-232 C-440,-232 -440,-165 -440,-165"></path></g><g opacity="1" transform="matrix(1,0,0,1,0,0)"><path stroke-linecap="round" stroke-linejoin="miter" fill-opacity="0" stroke-miterlimit="4" stroke="rgb(91,255,79)" stroke-opacity="1" stroke-width="21" d=" M-482,-246 C-482,-246 -393,-246 -393,-246"></path></g></g><g transform="matrix(1,0,0,1,765.18603515625,750.83203125)" opacity="1" style="display: block;"><g opacity="1" transform="matrix(1,0,0,1,0,0)"><path stroke-linecap="round" stroke-linejoin="miter" fill-opacity="0" stroke-miterlimit="4" stroke="rgb(91,255,79)" stroke-opacity="1" stroke-width="21" d=" M-440,-232 C-440,-232 -440,-165 -440,-165"></path></g><g opacity="1" transform="matrix(1,0,0,1,0,0)"><path stroke-linecap="round" stroke-linejoin="miter" fill-opacity="0" stroke-miterlimit="4" stroke="rgb(91,255,79)" stroke-opacity="1" stroke-width="21" d=" M-482,-246 C-482,-246 -393,-246 -393,-246"></path></g></g><g transform="matrix(0.7071067690849304,0.7071067690849304,-0.7071067690849304,0.7071067690849304,619.8436279296875,1053.073486328125)" opacity="1" style="display: block;"><g opacity="1" transform="matrix(1,0,0,1,0,0)"><path stroke-linecap="round" stroke-linejoin="miter" fill-opacity="0" stroke-miterlimit="4" stroke="rgb(91,255,79)" stroke-opacity="1" stroke-width="21" d=" M-440,-232 C-440,-232 -440,-165 -440,-165"></path></g><g opacity="1" transform="matrix(1,0,0,1,0,0)"><path stroke-linecap="round" stroke-linejoin="miter" fill-opacity="0" stroke-miterlimit="4" stroke="rgb(91,255,79)" stroke-opacity="1" stroke-width="21" d=" M-482,-246 C-482,-246 -393,-246 -393,-246"></path></g></g><g transform="matrix(-0.017452405765652657,0.9998477101325989,-0.9998477101325989,-0.017452405765652657,295.72210693359375,1163.52685546875)" opacity="1" style="display: block;"><g opacity="1" transform="matrix(1,0,0,1,0,0)"><path stroke-linecap="round" stroke-linejoin="miter" fill-opacity="0" stroke-miterlimit="4" stroke="rgb(91,255,79)" stroke-opacity="1" stroke-width="21" d=" M-440,-232 C-440,-232 -440,-165 -440,-165"></path></g><g opacity="1" transform="matrix(1,0,0,1,0,0)"><path stroke-linecap="round" stroke-linejoin="miter" fill-opacity="0" stroke-miterlimit="4" stroke="rgb(91,255,79)" stroke-opacity="1" stroke-width="21" d=" M-482,-246 C-482,-246 -393,-246 -393,-246"></path></g></g><g transform="matrix(-0.7660444378852844,0.6427876353263855,-0.6427876353263855,-0.7660444378852844,-23.10888671875,989.1018676757812)" opacity="1" style="display: block;"><g opacity="1" transform="matrix(1,0,0,1,0,0)"><path stroke-linecap="round" stroke-linejoin="miter" fill-opacity="0" stroke-miterlimit="4" stroke="rgb(91,255,79)" stroke-opacity="1" stroke-width="21" d=" M-440,-232 C-440,-232 -440,-165 -440,-165"></path></g><g opacity="1" transform="matrix(1,0,0,1,0,0)"><path stroke-linecap="round" stroke-linejoin="miter" fill-opacity="0" stroke-miterlimit="4" stroke="rgb(91,255,79)" stroke-opacity="1" stroke-width="21" d=" M-482,-246 C-482,-246 -393,-246 -393,-246"></path></g></g><g transform="matrix(-1,0,0,-1,-109.83203125,702.18603515625)" opacity="1" style="display: block;"><g opacity="1" transform="matrix(1,0,0,1,0,0)"><path stroke-linecap="round" stroke-linejoin="miter" fill-opacity="0" stroke-miterlimit="4" stroke="rgb(91,255,79)" stroke-opacity="1" stroke-width="21" d=" M-440,-232 C-440,-232 -440,-165 -440,-165"></path></g><g opacity="1" transform="matrix(1,0,0,1,0,0)"><path stroke-linecap="round" stroke-linejoin="miter" fill-opacity="0" stroke-miterlimit="4" stroke="rgb(91,255,79)" stroke-opacity="1" stroke-width="21" d=" M-482,-246 C-482,-246 -393,-246 -393,-246"></path></g></g><g transform="matrix(-0.7071067690849304,-0.7071067690849304,0.7071067690849304,-0.7071067690849304,35.5103759765625,399.9444580078125)" opacity="1" style="display: block;"><g opacity="1" transform="matrix(1,0,0,1,0,0)"><path stroke-linecap="round" stroke-linejoin="miter" fill-opacity="0" stroke-miterlimit="4" stroke="rgb(91,255,79)" stroke-opacity="1" stroke-width="21" d=" M-440,-232 C-440,-232 -440,-165 -440,-165"></path></g><g opacity="1" transform="matrix(1,0,0,1,0,0)"><path stroke-linecap="round" stroke-linejoin="miter" fill-opacity="0" stroke-miterlimit="4" stroke="rgb(91,255,79)" stroke-opacity="1" stroke-width="21" d=" M-482,-246 C-482,-246 -393,-246 -393,-246"></path></g></g></g></g><g clip-path="url(#__lottie_element_258)" transform="matrix(0.5899999737739563,0,0,0.5899999737739563,143.4000244140625,-150.5999755859375)" opacity="1" style="display: block;"><g mask="url(#__lottie_element_259)"><g transform="matrix(0.009616686962544918,0.9999537467956543,-0.9999537467956543,0.009616686962544918,520.015625,937.177490234375)" opacity="1" style="display: block;"><g opacity="1" transform="matrix(1.044700026512146,0,0,1.044700026512146,-210.5,188.5)"><path stroke-linecap="butt" stroke-linejoin="miter" fill-opacity="0" stroke-miterlimit="4" stroke="rgb(91,255,79)" stroke-opacity="1" stroke-width="21" d=" M0,-133.5 C73.67864990234375,-133.5 133.5,-73.67864990234375 133.5,0 C133.5,73.67864990234375 73.67864990234375,133.5 0,133.5 C-73.67864990234375,133.5 -133.5,73.67864990234375 -133.5,0 C-133.5,-73.67864990234375 -73.67864990234375,-133.5 0,-133.5z"></path></g></g><g transform="matrix(-0.009616686962544918,-0.9999537467956543,0.9999537467956543,-0.009616686962544918,347.7724609375,288.8039245605469)" opacity="1" style="display: block;"><g opacity="1" transform="matrix(1,0,0,1,0,0)"><path stroke-linecap="round" stroke-linejoin="miter" fill-opacity="0" stroke-miterlimit="4" stroke="rgb(91,255,79)" stroke-opacity="1" stroke-width="21" d=" M-440,-232 C-440,-232 -440,-165 -440,-165"></path></g><g opacity="1" transform="matrix(1,0,0,1,0,0)"><path stroke-linecap="round" stroke-linejoin="miter" fill-opacity="0" stroke-miterlimit="4" stroke="rgb(91,255,79)" stroke-opacity="1" stroke-width="21" d=" M-482,-246 C-482,-246 -393,-246 -393,-246"></path></g></g><g transform="matrix(0.7002740502357483,-0.713874101638794,0.713874101638794,0.7002740502357483,651.3977661132812,431.2330017089844)" opacity="1" style="display: block;"><g opacity="1" transform="matrix(1,0,0,1,0,0)"><path stroke-linecap="round" stroke-linejoin="miter" fill-opacity="0" stroke-miterlimit="4" stroke="rgb(91,255,79)" stroke-opacity="1" stroke-width="21" d=" M-440,-232 C-440,-232 -440,-165 -440,-165"></path></g><g opacity="1" transform="matrix(1,0,0,1,0,0)"><path stroke-linecap="round" stroke-linejoin="miter" fill-opacity="0" stroke-miterlimit="4" stroke="rgb(91,255,79)" stroke-opacity="1" stroke-width="21" d=" M-482,-246 C-482,-246 -393,-246 -393,-246"></path></g></g><g transform="matrix(0.9999537467956543,-0.009616686962544918,0.009616686962544918,0.9999537467956543,765.380615234375,746.64111328125)" opacity="1" style="display: block;"><g opacity="1" transform="matrix(1,0,0,1,0,0)"><path stroke-linecap="round" stroke-linejoin="miter" fill-opacity="0" stroke-miterlimit="4" stroke="rgb(91,255,79)" stroke-opacity="1" stroke-width="21" d=" M-440,-232 C-440,-232 -440,-165 -440,-165"></path></g><g opacity="1" transform="matrix(1,0,0,1,0,0)"><path stroke-linecap="round" stroke-linejoin="miter" fill-opacity="0" stroke-miterlimit="4" stroke="rgb(91,255,79)" stroke-opacity="1" stroke-width="21" d=" M-482,-246 C-482,-246 -393,-246 -393,-246"></path></g></g><g transform="matrix(0.713874101638794,0.7002740502357483,-0.7002740502357483,0.713874101638794,622.9515380859375,1050.266357421875)" opacity="1" style="display: block;"><g opacity="1" transform="matrix(1,0,0,1,0,0)"><path stroke-linecap="round" stroke-linejoin="miter" fill-opacity="0" stroke-miterlimit="4" stroke="rgb(91,255,79)" stroke-opacity="1" stroke-width="21" d=" M-440,-232 C-440,-232 -440,-165 -440,-165"></path></g><g opacity="1" transform="matrix(1,0,0,1,0,0)"><path stroke-linecap="round" stroke-linejoin="miter" fill-opacity="0" stroke-miterlimit="4" stroke="rgb(91,255,79)" stroke-opacity="1" stroke-width="21" d=" M-482,-246 C-482,-246 -393,-246 -393,-246"></path></g></g><g transform="matrix(-0.007836376316845417,0.9999693036079407,-0.9999693036079407,-0.007836376316845417,299.9072265625,1163.83154296875)" opacity="1" style="display: block;"><g opacity="1" transform="matrix(1,0,0,1,0,0)"><path stroke-linecap="round" stroke-linejoin="miter" fill-opacity="0" stroke-miterlimit="4" stroke="rgb(91,255,79)" stroke-opacity="1" stroke-width="21" d=" M-440,-232 C-440,-232 -440,-165 -440,-165"></path></g><g opacity="1" transform="matrix(1,0,0,1,0,0)"><path stroke-linecap="round" stroke-linejoin="miter" fill-opacity="0" stroke-miterlimit="4" stroke="rgb(91,255,79)" stroke-opacity="1" stroke-width="21" d=" M-482,-246 C-482,-246 -393,-246 -393,-246"></path></g></g><g transform="matrix(-0.7598274946212769,0.650124728679657,-0.650124728679657,-0.7598274946212769,-20.5864200592041,992.480712890625)" opacity="1" style="display: block;"><g opacity="1" transform="matrix(1,0,0,1,0,0)"><path stroke-linecap="round" stroke-linejoin="miter" fill-opacity="0" stroke-miterlimit="4" stroke="rgb(91,255,79)" stroke-opacity="1" stroke-width="21" d=" M-440,-232 C-440,-232 -440,-165 -440,-165"></path></g><g opacity="1" transform="matrix(1,0,0,1,0,0)"><path stroke-linecap="round" stroke-linejoin="miter" fill-opacity="0" stroke-miterlimit="4" stroke="rgb(91,255,79)" stroke-opacity="1" stroke-width="21" d=" M-482,-246 C-482,-246 -393,-246 -393,-246"></path></g></g><g transform="matrix(-0.9999537467956543,0.009616686962544918,-0.009616686962544918,-0.9999537467956543,-110.06473541259766,706.412109375)" opacity="1" style="display: block;"><g opacity="1" transform="matrix(1,0,0,1,0,0)"><path stroke-linecap="round" stroke-linejoin="miter" fill-opacity="0" stroke-miterlimit="4" stroke="rgb(91,255,79)" stroke-opacity="1" stroke-width="21" d=" M-440,-232 C-440,-232 -440,-165 -440,-165"></path></g><g opacity="1" transform="matrix(1,0,0,1,0,0)"><path stroke-linecap="round" stroke-linejoin="miter" fill-opacity="0" stroke-miterlimit="4" stroke="rgb(91,255,79)" stroke-opacity="1" stroke-width="21" d=" M-482,-246 C-482,-246 -393,-246 -393,-246"></path></g></g><g transform="matrix(-0.713874101638794,-0.7002740502357483,0.7002740502357483,-0.713874101638794,32.36438751220703,402.7868347167969)" opacity="1" style="display: block;"><g opacity="1" transform="matrix(1,0,0,1,0,0)"><path stroke-linecap="round" stroke-linejoin="miter" fill-opacity="0" stroke-miterlimit="4" stroke="rgb(91,255,79)" stroke-opacity="1" stroke-width="21" d=" M-440,-232 C-440,-232 -440,-165 -440,-165"></path></g><g opacity="1" transform="matrix(1,0,0,1,0,0)"><path stroke-linecap="round" stroke-linejoin="miter" fill-opacity="0" stroke-miterlimit="4" stroke="rgb(91,255,79)" stroke-opacity="1" stroke-width="21" d=" M-482,-246 C-482,-246 -393,-246 -393,-246"></path></g></g></g></g></g></svg>