<svg xmlns="http://www.w3.org/2000/svg" xmlns:xlink="http://www.w3.org/1999/xlink" viewBox="0 0 1080 1080" width="1080" height="1080" preserveAspectRatio="xMidYMid meet" style="width: 100%; height: 100%; transform: translate3d(0px, 0px, 0px); content-visibility: visible;"><defs><clipPath id="__lottie_element_210"><rect width="1080" height="1080" x="0" y="0"></rect></clipPath><clipPath id="__lottie_element_216"><path d="M0,0 L1080,0 L1080,1080 L0,1080z"></path></clipPath><mask id="__lottie_element_217"><rect fill="#ffffff" width="1080" height="1080" transform="matrix(1,0,0,1,0,0)"></rect><path fill="#000000" clip-rule="nonzero" d=" M166,488 C166,488 162,1108 162,1108 C162,1108 928,1120 928,1120 C928,1120 930,506 930,506 C930,506 548,816 548,816 C548,816 166,488 166,488" fill-opacity="1"></path></mask><mask id="__lottie_element_232"><path fill="#ffffff" clip-rule="nonzero" d=" M14.295000076293945,-3.48799991607666 C14.295000076293945,-3.48799991607666 -14.09000015258789,-3.694000005722046 -14.09000015258789,-3.694000005722046 C-14.09000015258789,-3.694000005722046 0.06800000369548798,9.644000053405762 0.06800000369548798,9.644000053405762 C0.06800000369548798,9.644000053405762 14.295000076293945,-3.48799991607666 14.295000076293945,-3.48799991607666" fill-opacity="0"></path></mask><mask id="__lottie_element_235"><rect fill="#ffffff" width="1080" height="1080" transform="matrix(0.03419972583651543,0,0,0.03419972583651543,-18.467647552490234,-18.467510223388672)"></rect><path fill="#000000" clip-rule="nonzero" d=" M14.09000015258789,-3.48799991607666 C14.09000015258789,-3.48799991607666 -14.159000396728516,-3.76200008392334 -14.159000396728516,-3.76200008392334 C-14.159000396728516,-3.76200008392334 0.06800000369548798,9.508000373840332 0.06800000369548798,9.508000373840332 C0.06800000369548798,9.508000373840332 14.09000015258789,-3.48799991607666 14.09000015258789,-3.48799991607666" fill-opacity="1"></path></mask></defs><g clip-path="url(#__lottie_element_210)"><g mask="url(#__lottie_element_235)" transform="matrix(29.239999771118164,0,0,29.239999771118164,539.9940185546875,539.989990234375)" opacity="1" style="display: block;"><g opacity="1" transform="matrix(1,0,0,1,0,0)"><path fill="rgb(92,255,79)" fill-opacity="1" d=" M11.954000473022461,13.222000122070312 C11.954000473022461,13.222000122070312 -11.954000473022461,13.222000122070312 -11.954000473022461,13.222000122070312 C-12.76099967956543,13.222000122070312 -13.418999671936035,12.5649995803833 -13.418999671936035,11.756999969482422 C-13.418999671936035,11.756999969482422 -13.418999671936035,-0.8090000152587891 -13.418999671936035,-0.8090000152587891 C-13.418999671936035,-1.5010000467300415 -13.145000457763672,-2.1080000400543213 -12.62600040435791,-2.565999984741211 C-12.62600040435791,-2.565999984741211 12.512999534606934,-2.5230000019073486 12.512999534606934,-2.5230000019073486 C12.678999900817871,-2.513000011444092 12.803000450134277,-2.490000009536743 12.90999984741211,-2.36899995803833 C13.017000198364258,-2.247999906539917 13.005000114440918,-2.062999963760376 12.883999824523926,-1.9559999704360962 C12.883999824523926,-1.9559999704360962 -12.23799991607666,-2.125999927520752 -12.23799991607666,-2.125999927520752 C-12.631999969482422,-1.777999997138977 -12.833000183105469,-1.3339999914169312 -12.833000183105469,-0.8080000281333923 C-12.833000183105469,-0.8080000281333923 -12.833000183105469,11.756999969482422 -12.833000183105469,11.756999969482422 C-12.833000183105469,12.241999626159668 -12.439000129699707,12.63599967956543 -11.954000473022461,12.63599967956543 C-11.954000473022461,12.63599967956543 11.954000473022461,12.63599967956543 11.954000473022461,12.63599967956543 C12.437999725341797,12.63599967956543 12.831999778747559,12.241999626159668 12.831999778747559,11.756999969482422 C12.831999778747559,11.756999969482422 12.833000183105469,-0.8090000152587891 12.833000183105469,-0.8090000152587891 C12.833000183105469,-1.3350000381469727 12.633000373840332,-1.777999997138977 12.23900032043457,-2.125999927520752 C12.23900032043457,-2.125999927520752 12.635000228881836,-2.377000093460083 12.635000228881836,-2.377000093460083 C13.152999877929688,-1.9190000295639038 13.418000221252441,-1.5 13.418000221252441,-0.8080000281333923 C13.418000221252441,-0.8080000281333923 13.418000221252441,11.756999969482422 13.418000221252441,11.756999969482422 C13.418000221252441,12.5649995803833 12.76200008392334,13.222000122070312 11.954000473022461,13.222000122070312 C11.954000473022461,13.222000122070312 11.954000473022461,13.222000122070312 11.954000473022461,13.222000122070312z"></path></g></g><g mask="url(#__lottie_element_232)" transform="matrix(29.239999771118164,0,0,29.239999771118164,539.9940185546875,539.989990234375)" opacity="1" style="display: block;"><g opacity="1" transform="matrix(1,0,0,1,0,0)"><path fill="rgb(92,255,79)" fill-opacity="1" d=" M11.954000473022461,13.222000122070312 C11.954000473022461,13.222000122070312 -11.954000473022461,13.222000122070312 -11.954000473022461,13.222000122070312 C-12.76099967956543,13.222000122070312 -13.418999671936035,12.5649995803833 -13.418999671936035,11.756999969482422 C-13.418999671936035,11.756999969482422 -13.418999671936035,-0.8090000152587891 -13.418999671936035,-0.8090000152587891 C-13.418999671936035,-1.5010000467300415 -13.145000457763672,-2.1080000400543213 -12.62600040435791,-2.565999984741211 C-12.62600040435791,-2.565999984741211 12.496000289916992,-2.446000099182129 12.496000289916992,-2.446000099182129 C12.616999626159668,-2.552999973297119 12.803000450134277,-2.490000009536743 12.90999984741211,-2.36899995803833 C13.017000198364258,-2.247999906539917 13.005000114440918,-2.062999963760376 12.883999824523926,-1.9559999704360962 C12.883999824523926,-1.9559999704360962 -12.23799991607666,-2.125999927520752 -12.23799991607666,-2.125999927520752 C-12.631999969482422,-1.777999997138977 -12.833000183105469,-1.3339999914169312 -12.833000183105469,-0.8080000281333923 C-12.833000183105469,-0.8080000281333923 -12.833000183105469,11.756999969482422 -12.833000183105469,11.756999969482422 C-12.833000183105469,12.241999626159668 -12.439000129699707,12.63599967956543 -11.954000473022461,12.63599967956543 C-11.954000473022461,12.63599967956543 11.954000473022461,12.63599967956543 11.954000473022461,12.63599967956543 C12.437999725341797,12.63599967956543 12.831999778747559,12.241999626159668 12.831999778747559,11.756999969482422 C12.831999778747559,11.756999969482422 12.833000183105469,-0.8090000152587891 12.833000183105469,-0.8090000152587891 C12.833000183105469,-1.3350000381469727 12.633000373840332,-1.777999997138977 12.23900032043457,-2.125999927520752 C12.23900032043457,-2.125999927520752 12.711999893188477,-2.4709999561309814 12.711999893188477,-2.4709999561309814 C13.229999542236328,-2.013000011444092 13.418000221252441,-1.5 13.418000221252441,-0.8080000281333923 C13.418000221252441,-0.8080000281333923 13.418000221252441,11.756999969482422 13.418000221252441,11.756999969482422 C13.418000221252441,12.5649995803833 12.76200008392334,13.222000122070312 11.954000473022461,13.222000122070312 C11.954000473022461,13.222000122070312 11.954000473022461,13.222000122070312 11.954000473022461,13.222000122070312z"></path></g></g><g transform="matrix(1,0,0,1,0.000030517578125,0.00103759765625)" opacity="1" style="display: block;"><g opacity="1" transform="matrix(29.239999771118164,0,0,29.239999771118164,539.9959716796875,540.0015258789062)"><g opacity="1" transform="matrix(1,0,0,1,0,0)"><path fill="rgb(92,255,79)" fill-opacity="1" d=" M0,9.805000305175781 C-0.31200000643730164,9.805000305175781 -0.6240000128746033,9.694000244140625 -0.871999979019165,9.475000381469727 C-0.871999979019165,9.475000381469727 -13.168000221252441,-1.3799999952316284 -13.168000221252441,-1.3799999952316284 C-13.288999557495117,-1.4869999885559082 -13.300999641418457,-1.6729999780654907 -13.194000244140625,-1.7940000295639038 C-13.086999893188477,-1.9160000085830688 -12.902000427246094,-1.9259999990463257 -12.781000137329102,-1.819000005722046 C-12.781000137329102,-1.819000005722046 -0.48500001430511475,9.03600025177002 -0.48500001430511475,9.03600025177002 C-0.20399999618530273,9.284000396728516 0.20399999618530273,9.284000396728516 0.48500001430511475,9.03600025177002 C0.48500001430511475,9.03600025177002 12.779999732971191,-1.819000005722046 12.779999732971191,-1.819000005722046 C12.901000022888184,-1.9259999990463257 13.086999893188477,-1.9149999618530273 13.194000244140625,-1.7940000295639038 C13.300999641418457,-1.6729999780654907 13.288999557495117,-1.4869999885559082 13.166999816894531,-1.3799999952316284 C13.166999816894531,-1.3799999952316284 0.871999979019165,9.475000381469727 0.871999979019165,9.475000381469727 C0.6240000128746033,9.694999694824219 0.31200000643730164,9.805000305175781 0,9.805000305175781 C0,9.805000305175781 0,9.805000305175781 0,9.805000305175781z"></path></g></g><g opacity="1" transform="matrix(29.239999771118164,0,0,29.239999771118164,539.9998779296875,540.0045166015625)"><g opacity="1" transform="matrix(1,0,0,1,0,0)"><path fill="rgb(92,255,79)" fill-opacity="1" d=" M-12.760000228881836,12.89900016784668 C-12.840999603271484,12.89900016784668 -12.92199993133545,12.866000175476074 -12.979999542236328,12.800000190734863 C-13.086999893188477,12.678999900817871 -13.074999809265137,12.494000434875488 -12.954000473022461,12.38700008392334 C-12.954000473022461,12.38700008392334 -5.015999794006348,5.377999782562256 -5.015999794006348,5.377999782562256 C-4.894000053405762,5.270999908447266 -4.709000110626221,5.2829999923706055 -4.6020002365112305,5.4039998054504395 C-4.494999885559082,5.525000095367432 -4.50600004196167,5.710999965667725 -4.627999782562256,5.817999839782715 C-4.627999782562256,5.817999839782715 -12.565999984741211,12.826000213623047 -12.565999984741211,12.826000213623047 C-12.621000289916992,12.875 -12.690999984741211,12.89900016784668 -12.760000228881836,12.89900016784668z"></path></g></g><g opacity="1" transform="matrix(29.239999771118164,0,0,29.239999771118164,539.99609375,540.0064697265625)"><g opacity="1" transform="matrix(1,0,0,1,0,0)"><path fill="rgb(92,255,79)" fill-opacity="1" d=" M12.760000228881836,12.899999618530273 C12.690999984741211,12.899999618530273 12.621999740600586,12.875 12.565999984741211,12.826000213623047 C12.565999984741211,12.826000213623047 4.627999782562256,5.817999839782715 4.627999782562256,5.817999839782715 C4.50600004196167,5.710999965667725 4.494999885559082,5.525000095367432 4.6020002365112305,5.4039998054504395 C4.709000110626221,5.2820000648498535 4.894999980926514,5.270999908447266 5.015999794006348,5.377999782562256 C5.015999794006348,5.377999782562256 12.954000473022461,12.38700008392334 12.954000473022461,12.38700008392334 C13.074999809265137,12.494000434875488 13.086000442504883,12.680000305175781 12.979000091552734,12.800999641418457 C12.920999526977539,12.866000175476074 12.840999603271484,12.899999618530273 12.760000228881836,12.899999618530273z"></path></g></g></g><g clip-path="url(#__lottie_element_216)" transform="matrix(1,0,0,1,0,0)" opacity="1" style="display: block;"><g mask="url(#__lottie_element_217)"><g transform="matrix(1,0,0,1,0,-8.999969482421875)" opacity="1" style="display: block;"><g opacity="1" transform="matrix(29.239999771118164,0,0,29.239999771118164,539.9910278320312,539.9951782226562)"><g opacity="1" transform="matrix(1,0,0,1,0,0)"><path fill="rgb(92,255,79)" fill-opacity="1" d=" M0,5.491000175476074 C-0.16200000047683716,5.491000175476074 -0.2930000126361847,5.360000133514404 -0.2930000126361847,5.197999954223633 C-0.2930000126361847,5.197999954223633 -0.2930000126361847,-0.15800000727176666 -0.2930000126361847,-0.15800000727176666 C-0.2930000126361847,-0.3199999928474426 -0.16200000047683716,-0.45100000500679016 0,-0.45100000500679016 C0.16200000047683716,-0.45100000500679016 0.2930000126361847,-0.3199999928474426 0.2930000126361847,-0.15800000727176666 C0.2930000126361847,-0.15800000727176666 0.2930000126361847,5.197999954223633 0.2930000126361847,5.197999954223633 C0.2930000126361847,5.360000133514404 0.16099999845027924,5.491000175476074 0,5.491000175476074z"></path></g></g><g opacity="1" transform="matrix(29.239999771118164,0,0,29.239999771118164,540,539.9942016601562)"><g opacity="1" transform="matrix(1,0,0,1,0,0)"><path fill="rgb(92,255,79)" fill-opacity="1" d=" M-0.013000000268220901,4.650000095367432 C-0.35199999809265137,4.650000095367432 -0.6899999976158142,4.559999942779541 -0.9539999961853027,4.382999897003174 C-1.340999960899353,4.123000144958496 -1.527999997138977,3.7170000076293945 -1.4800000190734863,3.242000102996826 C-1.4630000591278076,3.0810000896453857 -1.3200000524520874,2.9630000591278076 -1.159000039100647,2.9800000190734863 C-0.9980000257492065,2.996000051498413 -0.8820000290870667,3.140000104904175 -0.8980000019073486,3.3010001182556152 C-0.9240000247955322,3.558000087738037 -0.8330000042915344,3.757999897003174 -0.6269999742507935,3.8959999084472656 C-0.32100000977516174,4.10099983215332 0.18400000035762787,4.120999813079834 0.5230000019073486,3.940000057220459 C0.753000020980835,3.816999912261963 0.8690000176429749,3.630000114440918 0.8690000176429749,3.382999897003174 C0.8690000176429749,3.069000005722046 0.6129999756813049,2.812999963760376 0.29899999499320984,2.812999963760376 C0.29899999499320984,2.812999963760376 -0.29899999499320984,2.812999963760376 -0.29899999499320984,2.812999963760376 C-0.9369999766349792,2.812999963760376 -1.4550000429153442,2.2939999103546143 -1.4550000429153442,1.656999945640564 C-1.4550000429153442,1.1970000267028809 -1.215999960899353,0.8059999942779541 -0.7990000247955322,0.5830000042915344 C-0.26899999380111694,0.30000001192092896 0.46799999475479126,0.3310000002384186 0.953000009059906,0.6570000052452087 C1.340999960899353,0.9169999957084656 1.527999997138977,1.3229999542236328 1.4800000190734863,1.7979999780654907 C1.4639999866485596,1.9589999914169312 1.3200000524520874,2.0759999752044678 1.159000039100647,2.059999942779541 C0.9980000257492065,2.0439999103546143 0.8820000290870667,1.899999976158142 0.8980000019073486,1.7389999628067017 C0.9240000247955322,1.4819999933242798 0.8320000171661377,1.281999945640564 0.6269999742507935,1.1440000534057617 C0.32100000977516174,0.9390000104904175 -0.18400000035762787,0.9190000295639038 -0.5230000019073486,1.100000023841858 C-0.753000020980835,1.2230000495910645 -0.8690000176429749,1.409999966621399 -0.8690000176429749,1.656999945640564 C-0.8690000176429749,1.9709999561309814 -0.6129999756813049,2.2269999980926514 -0.29899999499320984,2.2269999980926514 C-0.29899999499320984,2.2269999980926514 0.30000001192092896,2.2269999980926514 0.30000001192092896,2.2269999980926514 C0.9369999766349792,2.2269999980926514 1.4550000429153442,2.746000051498413 1.4550000429153442,3.382999897003174 C1.4550000429153442,3.8429999351501465 1.215999960899353,4.234000205993652 0.7990000247955322,4.456999778747559 C0.5569999814033508,4.585999965667725 0.2709999978542328,4.650000095367432 -0.013000000268220901,4.650000095367432z"></path></g></g><g opacity="1" transform="matrix(29.239999771118164,0,0,29.239999771118164,540,539.9971923828125)"><g opacity="1" transform="matrix(1,0,0,1,0,0)"><path fill="rgb(92,255,79)" fill-opacity="1" d=" M0,-0.7789999842643738 C-1.819000005722046,-0.7789999842643738 -3.2990000247955322,0.7009999752044678 -3.2990000247955322,2.5199999809265137 C-3.2990000247955322,4.339000225067139 -1.819000005722046,5.817999839782715 0,5.817999839782715 C1.819000005722046,5.817999839782715 3.2990000247955322,4.339000225067139 3.2990000247955322,2.5199999809265137 C3.2990000247955322,0.7009999752044678 1.819000005722046,-0.7789999842643738 0,-0.7789999842643738z M0,6.4039998054504395 C-2.1419999599456787,6.4039998054504395 -3.884999990463257,4.6620001792907715 -3.884999990463257,2.5199999809265137 C-3.884999990463257,0.3779999911785126 -2.1419999599456787,-1.3650000095367432 0,-1.3650000095367432 C2.1429998874664307,-1.3650000095367432 3.884999990463257,0.3779999911785126 3.884999990463257,2.5199999809265137 C3.884999990463257,4.6620001792907715 2.1419999599456787,6.4039998054504395 0,6.4039998054504395z"></path></g></g></g><g transform="matrix(1,0,0,1,0,322.0000305175781)" opacity="1" style="display: block;"><g opacity="1" transform="matrix(1,0,0,1,0,-337)"><g opacity="1" transform="matrix(29.239999771118164,0,0,29.239999771118164,540.0009765625,540.0130004882812)"><g opacity="1" transform="matrix(1,0,0,1,0,0)"><path fill="rgb(92,255,79)" fill-opacity="1" d=" M10.223999977111816,1.121999979019165 C10.062000274658203,1.121999979019165 9.930999755859375,0.9909999966621399 9.930999755859375,0.8289999961853027 C9.930999755859375,0.8289999961853027 9.930999755859375,-1.7280000448226929 9.930999755859375,-1.7280000448226929 C9.930999755859375,-2.1449999809265137 9.592000007629395,-2.484999895095825 9.175000190734863,-2.484999895095825 C9.175000190734863,-2.484999895095825 -9.175000190734863,-2.484999895095825 -9.175000190734863,-2.484999895095825 C-9.592000007629395,-2.484999895095825 -9.930999755859375,-2.1449999809265137 -9.930999755859375,-1.7280000448226929 C-9.930999755859375,-1.7280000448226929 -9.930999755859375,0.8289999961853027 -9.930999755859375,0.8289999961853027 C-9.930999755859375,0.9909999966621399 -10.062000274658203,1.121999979019165 -10.223999977111816,1.121999979019165 C-10.38599967956543,1.121999979019165 -10.517000198364258,0.9909999966621399 -10.517000198364258,0.8289999961853027 C-10.517000198364258,0.8289999961853027 -10.517000198364258,-1.7280000448226929 -10.517000198364258,-1.7280000448226929 C-10.517000198364258,-2.4679999351501465 -9.914999961853027,-3.071000099182129 -9.175000190734863,-3.071000099182129 C-9.175000190734863,-3.071000099182129 9.175000190734863,-3.071000099182129 9.175000190734863,-3.071000099182129 C9.914999961853027,-3.071000099182129 10.517000198364258,-2.4679999351501465 10.517000198364258,-1.7280000448226929 C10.517000198364258,-1.7280000448226929 10.517000198364258,0.8289999961853027 10.517000198364258,0.8289999961853027 C10.517000198364258,0.9909999966621399 10.38599967956543,1.121999979019165 10.223999977111816,1.121999979019165z"></path></g></g><g opacity="1" transform="matrix(29.239999771118164,0,0,29.239999771118164,540.0069580078125,539.9876708984375)"><g opacity="1" transform="matrix(1,0,0,1,0,0)"><path fill="rgb(92,255,79)" fill-opacity="1" d=" M-9.975000381469727,0.906000018119812 C-10.0649995803833,0.906000018119812 -10.156000137329102,0.9020000100135803 -10.246999740600586,0.8949999809265137 C-10.407999992370605,0.8820000290870667 -10.529000282287598,0.7409999966621399 -10.515999794006348,0.5799999833106995 C-10.51099967956543,0.5130000114440918 -10.482999801635742,0.4519999921321869 -10.440999984741211,0.4059999883174896 C-10.437999725341797,0.40299999713897705 -10.435999870300293,0.4000000059604645 -10.432999610900879,0.3970000147819519 C-10.428000450134277,0.3919999897480011 -10.42300033569336,0.3869999945163727 -10.418000221252441,0.38199999928474426 C-10.416000366210938,0.3799999952316284 -10.413999557495117,0.3799999952316284 -10.411999702453613,0.3779999911785126 C-10.355999946594238,0.3310000002384186 -10.281000137329102,0.3050000071525574 -10.201000213623047,0.3109999895095825 C-9.368000030517578,0.37700000405311584 -8.552000045776367,0.07599999755620956 -7.960999965667725,-0.5149999856948853 C-7.369999885559082,-1.1059999465942383 -7.068999767303467,-1.9220000505447388 -7.135000228881836,-2.755000114440918 C-7.146999835968018,-2.9159998893737793 -7.0269999504089355,-3.056999921798706 -6.866000175476074,-3.069999933242798 C-6.704999923706055,-3.0829999446868896 -6.563000202178955,-2.9619998931884766 -6.551000118255615,-2.8010001182556152 C-6.4720001220703125,-1.7970000505447388 -6.835000038146973,-0.8130000233650208 -7.546999931335449,-0.10100000351667404 C-8.194999694824219,0.546999990940094 -9.067000389099121,0.906000018119812 -9.975000381469727,0.906000018119812z"></path></g></g><g opacity="1" transform="matrix(29.239999771118164,0,0,29.239999771118164,540.0062866210938,539.9906616210938)"><g opacity="1" transform="matrix(1,0,0,1,0,0)"><path fill="rgb(92,255,79)" fill-opacity="1" d=" M9.975000381469727,0.906000018119812 C9.067000389099121,0.906000018119812 8.194999694824219,0.546999990940094 7.546999931335449,-0.10100000351667404 C6.835000038146973,-0.8130000233650208 6.4720001220703125,-1.7970000505447388 6.551000118255615,-2.8010001182556152 C6.564000129699707,-2.9619998931884766 6.703999996185303,-3.0829999446868896 6.866000175476074,-3.069999933242798 C7.0269999504089355,-3.056999921798706 7.1479997634887695,-2.9159998893737793 7.135000228881836,-2.755000114440918 C7.070000171661377,-1.9220000505447388 7.369999885559082,-1.1059999465942383 7.960999965667725,-0.5149999856948853 C8.550999641418457,0.07599999755620956 9.368000030517578,0.37700000405311584 10.201000213623047,0.3109999895095825 C10.36299991607666,0.2980000078678131 10.503000259399414,0.4189999997615814 10.515999794006348,0.5799999833106995 C10.529000282287598,0.7409999966621399 10.407999992370605,0.8820000290870667 10.246999740600586,0.8949999809265137 C10.156000137329102,0.9020000100135803 10.0649995803833,0.906000018119812 9.975000381469727,0.906000018119812z"></path></g></g></g></g><g transform="matrix(1,0,0,1,0,0)" opacity="1" style="display: block;"><g opacity="1" transform="matrix(29.239999771118164,0,0,29.239999771118164,540.0009765625,539.9886474609375)"><g opacity="1" transform="matrix(1,0,0,1,0,0)"><path fill="rgb(92,255,79)" fill-opacity="1" d=" M10.223999977111816,-1.434999942779541 C10.062000274658203,-1.434999942779541 9.930999755859375,-1.565999984741211 9.930999755859375,-1.7280000448226929 C9.930999755859375,-1.7280000448226929 9.930999755859375,-7.4029998779296875 9.930999755859375,-7.4029998779296875 C9.930999755859375,-7.820000171661377 9.592000007629395,-8.15999984741211 9.175000190734863,-8.15999984741211 C9.175000190734863,-8.15999984741211 -9.175000190734863,-8.15999984741211 -9.175000190734863,-8.15999984741211 C-9.592000007629395,-8.15999984741211 -9.930999755859375,-7.820000171661377 -9.930999755859375,-7.4029998779296875 C-9.930999755859375,-7.4029998779296875 -9.930999755859375,-1.7280000448226929 -9.930999755859375,-1.7280000448226929 C-9.930999755859375,-1.565999984741211 -10.062000274658203,-1.434999942779541 -10.223999977111816,-1.434999942779541 C-10.38599967956543,-1.434999942779541 -10.517000198364258,-1.565999984741211 -10.517000198364258,-1.7280000448226929 C-10.517000198364258,-1.7280000448226929 -10.517000198364258,-7.4029998779296875 -10.517000198364258,-7.4029998779296875 C-10.517000198364258,-8.142999649047852 -9.914999961853027,-8.744999885559082 -9.175000190734863,-8.744999885559082 C-9.175000190734863,-8.744999885559082 9.175000190734863,-8.746000289916992 9.175000190734863,-8.746000289916992 C9.914999961853027,-8.746000289916992 10.517000198364258,-8.142999649047852 10.517000198364258,-7.4029998779296875 C10.517000198364258,-7.4029998779296875 10.517000198364258,-1.7280000448226929 10.517000198364258,-1.7280000448226929 C10.517000198364258,-1.565999984741211 10.38599967956543,-1.434999942779541 10.223999977111816,-1.434999942779541z"></path></g></g><g opacity="1" transform="matrix(29.239999771118164,0,0,29.239999771118164,540.0069580078125,539.9896850585938)"><g opacity="1" transform="matrix(1,0,0,1,0,0)"><path fill="rgb(92,255,79)" fill-opacity="1" d=" M-9.975000381469727,-4.769000053405762 C-10.0649995803833,-4.769000053405762 -10.156000137329102,-4.7729997634887695 -10.246999740600586,-4.78000020980835 C-10.407999992370605,-4.793000221252441 -10.529000282287598,-4.934000015258789 -10.515999794006348,-5.09499979019165 C-10.503000259399414,-5.25600004196167 -10.364999771118164,-5.376999855041504 -10.201000213623047,-5.363999843597412 C-9.369000434875488,-5.298999786376953 -8.552000045776367,-5.598999977111816 -7.960999965667725,-6.190000057220459 C-7.369999885559082,-6.781000137329102 -7.068999767303467,-7.5970001220703125 -7.135000228881836,-8.430000305175781 C-7.146999835968018,-8.590999603271484 -7.0269999504089355,-8.732000350952148 -6.866000175476074,-8.744999885559082 C-6.704999923706055,-8.758000373840332 -6.563000202178955,-8.63700008392334 -6.551000118255615,-8.47599983215332 C-6.4720001220703125,-7.4720001220703125 -6.835000038146973,-6.48799991607666 -7.546999931335449,-5.776000022888184 C-8.194999694824219,-5.127999782562256 -9.067000389099121,-4.769000053405762 -9.975000381469727,-4.769000053405762z"></path></g></g><g opacity="1" transform="matrix(29.239999771118164,0,0,29.239999771118164,540.0062866210938,539.9886474609375)"><g opacity="1" transform="matrix(1,0,0,1,0,0)"><path fill="rgb(92,255,79)" fill-opacity="1" d=" M9.975000381469727,-4.769000053405762 C9.067000389099121,-4.769000053405762 8.194999694824219,-5.127999782562256 7.546999931335449,-5.776000022888184 C6.835000038146973,-6.48799991607666 6.4720001220703125,-7.4720001220703125 6.551000118255615,-8.47599983215332 C6.564000129699707,-8.63700008392334 6.703999996185303,-8.758000373840332 6.866000175476074,-8.744999885559082 C7.0269999504089355,-8.732000350952148 7.1479997634887695,-8.590999603271484 7.135000228881836,-8.430000305175781 C7.070000171661377,-7.5970001220703125 7.369999885559082,-6.781000137329102 7.960999965667725,-6.190000057220459 C8.550999641418457,-5.598999977111816 9.369999885559082,-5.297999858856201 10.201000213623047,-5.363999843597412 C10.36299991607666,-5.376999855041504 10.503000259399414,-5.25600004196167 10.515999794006348,-5.09499979019165 C10.529000282287598,-4.934000015258789 10.407999992370605,-4.793000221252441 10.246999740600586,-4.78000020980835 C10.156000137329102,-4.7729997634887695 10.0649995803833,-4.769000053405762 9.975000381469727,-4.769000053405762z"></path></g></g></g></g></g><g transform="matrix(1,0,0,1,540,540)" opacity="1" style="display: block;"><g opacity="1" transform="matrix(1,0,0,1,0,0)"><path stroke-linecap="round" stroke-linejoin="round" fill-opacity="0" stroke="rgb(92,255,79)" stroke-opacity="1" stroke-width="21" d=" M-371,-59 C-371,-59 -28,-376.5 0.5,-376.5 C30,-376.5 375,-55 375,-55"></path></g></g></g></svg>