<svg xmlns="http://www.w3.org/2000/svg" xmlns:xlink="http://www.w3.org/1999/xlink" viewBox="0 0 1080 1080" width="1080" height="1080" preserveAspectRatio="xMidYMid meet" style="width: 100%; height: 100%; transform: translate3d(0px, 0px, 0px); content-visibility: visible;"><defs><clipPath id="__lottie_element_237"><rect width="1080" height="1080" x="0" y="0"></rect></clipPath></defs><g clip-path="url(#__lottie_element_237)"><g transform="matrix(34.41999816894531,0,0,34.41999816894531,540,557.9925537109375)" opacity="1" style="display: block;"><g opacity="1" transform="matrix(1,0,0,1,0,0)"><path fill="rgb(92,255,79)" fill-opacity="1" d=" M1.5980000495910645,8.524999618530273 C1.4019999504089355,8.524999618530273 1.2430000305175781,8.684000015258789 1.2430000305175781,8.880000114440918 C1.2430000305175781,9.272000312805176 0.925000011920929,9.59000015258789 0.5329999923706055,9.59000015258789 C0.5329999923706055,9.59000015258789 -0.5329999923706055,9.59000015258789 -0.5329999923706055,9.59000015258789 C-0.925000011920929,9.59000015258789 -1.2430000305175781,9.272000312805176 -1.2430000305175781,8.880000114440918 C-1.2430000305175781,8.684000015258789 -1.4019999504089355,8.524999618530273 -1.5980000495910645,8.524999618530273 C-1.7940000295639038,8.524999618530273 -1.9539999961853027,8.684000015258789 -1.9539999961853027,8.880000114440918 C-1.9539999961853027,9.663000106811523 -1.315999984741211,10.300999641418457 -0.5329999923706055,10.300999641418457 C-0.5329999923706055,10.300999641418457 0.5329999923706055,10.300999641418457 0.5329999923706055,10.300999641418457 C1.315999984741211,10.300999641418457 1.9539999961853027,9.663000106811523 1.9539999961853027,8.880000114440918 C1.9539999961853027,8.684000015258789 1.7940000295639038,8.524999618530273 1.5980000495910645,8.524999618530273z"></path></g></g><g transform="matrix(34.41999816894531,0,0,34.41999816894531,540,557.9925537109375)" opacity="1" style="display: block;"><g opacity="1" transform="matrix(1,0,0,1,0,0)"><path fill="rgb(92,255,79)" fill-opacity="1" d=" M0,0 C-1.8609999418258667,0 -3.374000072479248,1.5130000114440918 -3.374000072479248,3.374000072479248 C-3.374000072479248,4.479000091552734 -2.8469998836517334,5.49399995803833 -1.9539999961853027,6.125999927520752 C-1.9539999961853027,6.125999927520752 -1.9539999961853027,7.814000129699707 -1.9539999961853027,7.814000129699707 C-1.9539999961853027,8.010000228881836 -1.7940000295639038,8.170000076293945 -1.5980000495910645,8.170000076293945 C-1.5980000495910645,8.170000076293945 1.5980000495910645,8.170000076293945 1.5980000495910645,8.170000076293945 C1.7940000295639038,8.170000076293945 1.9539999961853027,8.010000228881836 1.9539999961853027,7.814000129699707 C1.9539999961853027,7.814000129699707 1.9539999961853027,6.125999927520752 1.9539999961853027,6.125999927520752 C2.8469998836517334,5.49399995803833 3.374000072479248,4.479000091552734 3.374000072479248,3.374000072479248 C3.374000072479248,1.5130000114440918 1.8609999418258667,0 0,0z M1.409999966621399,5.633999824523926 C1.305999994277954,5.698999881744385 1.2430000305175781,5.811999797821045 1.2430000305175781,5.934999942779541 C1.2430000305175781,5.934999942779541 1.2430000305175781,7.459000110626221 1.2430000305175781,7.459000110626221 C1.2430000305175781,7.459000110626221 0.35499998927116394,7.459000110626221 0.35499998927116394,7.459000110626221 C0.35499998927116394,7.459000110626221 0.35499998927116394,4.085000038146973 0.35499998927116394,4.085000038146973 C0.35499998927116394,4.085000038146973 1.4210000038146973,4.085000038146973 1.4210000038146973,4.085000038146973 C1.6169999837875366,4.085000038146973 1.7760000228881836,3.9260001182556152 1.7760000228881836,3.7300000190734863 C1.7760000228881836,3.5339999198913574 1.6169999837875366,3.374000072479248 1.4210000038146973,3.374000072479248 C1.4210000038146973,3.374000072479248 -1.2430000305175781,3.374000072479248 -1.2430000305175781,3.374000072479248 C-1.4390000104904175,3.374000072479248 -1.5980000495910645,3.5339999198913574 -1.5980000495910645,3.7300000190734863 C-1.5980000495910645,3.9260001182556152 -1.4390000104904175,4.085000038146973 -1.2430000305175781,4.085000038146973 C-1.2430000305175781,4.085000038146973 -0.35499998927116394,4.085000038146973 -0.35499998927116394,4.085000038146973 C-0.35499998927116394,4.085000038146973 -0.35499998927116394,7.459000110626221 -0.35499998927116394,7.459000110626221 C-0.35499998927116394,7.459000110626221 -1.2430000305175781,7.459000110626221 -1.2430000305175781,7.459000110626221 C-1.2430000305175781,7.459000110626221 -1.2430000305175781,5.934999942779541 -1.2430000305175781,5.934999942779541 C-1.2430000305175781,5.811999797821045 -1.305999994277954,5.698999881744385 -1.409999966621399,5.633999824523926 C-2.194999933242798,5.144000053405762 -2.6640000343322754,4.298999786376953 -2.6640000343322754,3.374000072479248 C-2.6640000343322754,1.9049999713897705 -1.468999981880188,0.7099999785423279 0,0.7099999785423279 C1.468999981880188,0.7099999785423279 2.6640000343322754,1.9049999713897705 2.6640000343322754,3.374000072479248 C2.6640000343322754,4.298999786376953 2.194999933242798,5.144000053405762 1.409999966621399,5.633999824523926z"></path></g></g><g transform="matrix(-34.41999816894531,0,0,34.41999816894531,562,539.5865478515625)" opacity="1" style="display: block;"><g opacity="1" transform="matrix(1,0,0,1,0,0)"><path fill="rgb(92,255,79)" fill-opacity="1" d=" M0.5019999742507935,-5.683000087738037 C0.5019999742507935,-5.683000087738037 4.513999938964844,-9.694000244140625 4.513999938964844,-9.694000244140625 C4.6529998779296875,-9.833000183105469 4.6529998779296875,-10.057999610900879 4.513999938964844,-10.196999549865723 C4.375,-10.336000442504883 4.150000095367432,-10.336000442504883 4.011000156402588,-10.196999549865723 C4.011000156402588,-10.196999549865723 0,-6.185999870300293 0,-6.185999870300293 C0,-6.185999870300293 -0.5019999742507935,-5.683000087738037 -0.5019999742507935,-5.683000087738037 C-0.5019999742507935,-5.683000087738037 -1.6319999694824219,-4.553999900817871 -1.6319999694824219,-4.553999900817871 C-1.8359999656677246,-4.671000003814697 -2.066999912261963,-4.734000205993652 -2.309000015258789,-4.734000205993652 C-2.671999931335449,-4.734000205993652 -3.013000011444092,-4.5929999351501465 -3.2699999809265137,-4.335999965667725 C-3.2699999809265137,-4.335999965667725 -5.6529998779296875,-1.9539999961853027 -5.6529998779296875,-1.9539999961853027 C-5.6529998779296875,-1.9539999961853027 -9.767999649047852,-1.9539999961853027 -9.767999649047852,-1.9539999961853027 C-10.64900016784668,-1.9539999961853027 -11.366000175476074,-1.2359999418258667 -11.366000175476074,-0.35499998927116394 C-11.366000175476074,-0.35499998927116394 -11.366000175476074,5.593999862670898 -11.366000175476074,5.593999862670898 C-11.366000175476074,6.328000068664551 -10.767999649047852,6.926000118255615 -10.034000396728516,6.926000118255615 C-9.300000190734863,6.926000118255615 -8.70199966430664,6.328000068664551 -8.70199966430664,5.593999862670898 C-8.70199966430664,5.593999862670898 -8.70199966430664,0.8880000114440918 -8.70199966430664,0.8880000114440918 C-8.70199966430664,0.6919999718666077 -8.862000465393066,0.5329999923706055 -9.057999610900879,0.5329999923706055 C-9.253999710083008,0.5329999923706055 -9.413000106811523,0.6919999718666077 -9.413000106811523,0.8880000114440918 C-9.413000106811523,0.8880000114440918 -9.413000106811523,5.593999862670898 -9.413000106811523,5.593999862670898 C-9.413000106811523,5.936999797821045 -9.690999984741211,6.216000080108643 -10.034000396728516,6.216000080108643 C-10.376999855041504,6.216000080108643 -10.656000137329102,5.936999797821045 -10.656000137329102,5.593999862670898 C-10.656000137329102,5.593999862670898 -10.656000137329102,-0.35499998927116394 -10.656000137329102,-0.35499998927116394 C-10.656000137329102,-0.8450000286102295 -10.258000373840332,-1.2430000305175781 -9.767999649047852,-1.2430000305175781 C-9.767999649047852,-1.2430000305175781 -5.50600004196167,-1.2430000305175781 -5.50600004196167,-1.2430000305175781 C-5.502999782562256,-1.2430000305175781 -5.500999927520752,-1.24399995803833 -5.498000144958496,-1.24399995803833 C-5.488999843597412,-1.24399995803833 -5.480000019073486,-1.24399995803833 -5.4710001945495605,-1.2450000047683716 C-5.465000152587891,-1.246000051498413 -5.458000183105469,-1.246999979019165 -5.452000141143799,-1.2480000257492065 C-5.447000026702881,-1.2489999532699585 -5.440999984741211,-1.2489999532699585 -5.435999870300293,-1.25 C-5.428999900817871,-1.2510000467300415 -5.422999858856201,-1.253000020980835 -5.416999816894531,-1.2549999952316284 C-5.4120001792907715,-1.25600004196167 -5.4079999923706055,-1.2569999694824219 -5.4029998779296875,-1.2580000162124634 C-5.396999835968018,-1.2599999904632568 -5.390999794006348,-1.2630000114440918 -5.385000228881836,-1.2649999856948853 C-5.380000114440918,-1.2669999599456787 -5.375,-1.2680000066757202 -5.369999885559082,-1.2699999809265137 C-5.364999771118164,-1.2719999551773071 -5.359000205993652,-1.274999976158142 -5.354000091552734,-1.277999997138977 C-5.348999977111816,-1.2799999713897705 -5.3429999351501465,-1.281999945640564 -5.3379998207092285,-1.284999966621399 C-5.333000183105469,-1.2879999876022339 -5.328999996185303,-1.2910000085830688 -5.323999881744385,-1.2940000295639038 C-5.318999767303467,-1.2970000505447388 -5.313000202178955,-1.2999999523162842 -5.308000087738037,-1.3029999732971191 C-5.302999973297119,-1.305999994277954 -5.297999858856201,-1.309999942779541 -5.293000221252441,-1.3140000104904175 C-5.289000034332275,-1.3170000314712524 -5.283999919891357,-1.3209999799728394 -5.28000020980835,-1.3240000009536743 C-5.271999835968018,-1.3309999704360962 -5.263999938964844,-1.3380000591278076 -5.256999969482422,-1.3450000286102295 C-5.25600004196167,-1.3459999561309814 -5.255000114440918,-1.3459999561309814 -5.254000186920166,-1.347000002861023 C-5.254000186920166,-1.347000002861023 -2.7679998874664307,-3.8340001106262207 -2.7679998874664307,-3.8340001106262207 C-2.6449999809265137,-3.9570000171661377 -2.4830000400543213,-4.02400016784668 -2.309000015258789,-4.02400016784668 C-2.134999990463257,-4.02400016784668 -1.9730000495910645,-3.9570000171661377 -1.850000023841858,-3.8340001106262207 C-1.597000002861023,-3.5810000896453857 -1.597000002861023,-3.1679999828338623 -1.850000023841858,-2.9149999618530273 C-1.850000023841858,-2.9149999618530273 -5.4019999504089355,0.6370000243186951 -5.4019999504089355,0.6370000243186951 C-5.4029998779296875,0.6380000114440918 -5.4029998779296875,0.6380000114440918 -5.4039998054504395,0.6389999985694885 C-5.410999774932861,0.6470000147819519 -5.418000221252441,0.6549999713897705 -5.425000190734863,0.6629999876022339 C-5.428999900817871,0.6669999957084656 -5.432000160217285,0.671999990940094 -5.434999942779541,0.6759999990463257 C-5.439000129699707,0.6809999942779541 -5.442999839782715,0.6859999895095825 -5.446000099182129,0.6909999847412109 C-5.448999881744385,0.6959999799728394 -5.452000141143799,0.7009999752044678 -5.454999923706055,0.7059999704360962 C-5.458000183105469,0.7110000252723694 -5.460999965667725,0.7160000205039978 -5.464000225067139,0.7210000157356262 C-5.4670000076293945,0.7260000109672546 -5.468999862670898,0.7319999933242798 -5.4720001220703125,0.7369999885559082 C-5.473999977111816,0.7419999837875366 -5.4770002365112305,0.746999979019165 -5.479000091552734,0.7519999742507935 C-5.480999946594238,0.7570000290870667 -5.48199987411499,0.7630000114440918 -5.484000205993652,0.7680000066757202 C-5.486000061035156,0.7730000019073486 -5.48799991607666,0.7789999842643738 -5.489999771118164,0.7850000262260437 C-5.492000102996826,0.7900000214576721 -5.49399995803833,0.7960000038146973 -5.494999885559082,0.8009999990463257 C-5.495999813079834,0.8069999814033508 -5.498000144958496,0.8119999766349792 -5.499000072479248,0.8180000185966492 C-5.5,0.824999988079071 -5.500999927520752,0.8320000171661377 -5.501999855041504,0.8379999995231628 C-5.502999782562256,0.8429999947547913 -5.504000186920166,0.8479999899864197 -5.504000186920166,0.8529999852180481 C-5.505000114440918,0.8650000095367432 -5.50600004196167,0.8759999871253967 -5.50600004196167,0.8880000114440918 C-5.50600004196167,0.8880000114440918 -5.50600004196167,6.571000099182129 -5.50600004196167,6.571000099182129 C-5.50600004196167,6.767000198364258 -5.3460001945495605,6.926000118255615 -5.150000095367432,6.926000118255615 C-4.953999996185303,6.926000118255615 -4.795000076293945,6.767000198364258 -4.795000076293945,6.571000099182129 C-4.795000076293945,6.571000099182129 -4.795000076293945,1.034999966621399 -4.795000076293945,1.034999966621399 C-4.795000076293945,1.034999966621399 -1.347000002861023,-2.4130001068115234 -1.347000002861023,-2.4130001068115234 C-0.9039999842643738,-2.8559999465942383 -0.8320000171661377,-3.5309998989105225 -1.1299999952316284,-4.051000118255615 C-1.1299999952316284,-4.051000118255615 0,-5.181000232696533 0,-5.181000232696533 C0,-5.181000232696533 0.5019999742507935,-5.683000087738037 0.5019999742507935,-5.683000087738037z"></path></g></g><g transform="matrix(34.41999816894531,0,0,34.41999816894531,558.0072631835938,539.9651489257812)" opacity="1" style="display: block;"><g opacity="1" transform="matrix(1,0,0,1,0,0)"><path fill="rgb(92,255,79)" fill-opacity="1" d=" M7.814000129699707,-2.4860000610351562 C9.282999992370605,-2.4860000610351562 10.477999687194824,-3.680999994277954 10.477999687194824,-5.150000095367432 C10.477999687194824,-6.61899995803833 9.282999992370605,-7.814000129699707 7.814000129699707,-7.814000129699707 C6.34499979019165,-7.814000129699707 5.150000095367432,-6.61899995803833 5.150000095367432,-5.150000095367432 C5.150000095367432,-3.680999994277954 6.34499979019165,-2.4860000610351562 7.814000129699707,-2.4860000610351562z M7.814000129699707,-7.104000091552734 C8.890999794006348,-7.104000091552734 9.767999649047852,-6.2270002365112305 9.767999649047852,-5.150000095367432 C9.767999649047852,-4.072999954223633 8.890999794006348,-3.197000026702881 7.814000129699707,-3.197000026702881 C6.736999988555908,-3.197000026702881 5.861000061035156,-4.072999954223633 5.861000061035156,-5.150000095367432 C5.861000061035156,-6.2270002365112305 6.736999988555908,-7.104000091552734 7.814000129699707,-7.104000091552734z"></path></g></g><g transform="matrix(34.41999816894531,0,0,34.41999816894531,540,539.9935302734375)" opacity="1" style="display: block;"><g opacity="1" transform="matrix(1,0,0,1,0,0)"><path fill="rgb(92,255,79)" fill-opacity="1" d=" M0.5019999742507935,-5.683000087738037 C0.5019999742507935,-5.683000087738037 4.513999938964844,-9.694000244140625 4.513999938964844,-9.694000244140625 C4.6529998779296875,-9.833000183105469 4.6529998779296875,-10.057999610900879 4.513999938964844,-10.196999549865723 C4.375,-10.336000442504883 4.150000095367432,-10.336000442504883 4.011000156402588,-10.196999549865723 C4.011000156402588,-10.196999549865723 0,-6.185999870300293 0,-6.185999870300293 C0,-6.185999870300293 -0.5019999742507935,-5.683000087738037 -0.5019999742507935,-5.683000087738037 C-0.5019999742507935,-5.683000087738037 -1.6319999694824219,-4.553999900817871 -1.6319999694824219,-4.553999900817871 C-1.8359999656677246,-4.671000003814697 -2.066999912261963,-4.734000205993652 -2.309000015258789,-4.734000205993652 C-2.671999931335449,-4.734000205993652 -3.013000011444092,-4.5929999351501465 -3.2699999809265137,-4.335999965667725 C-3.2699999809265137,-4.335999965667725 -5.6529998779296875,-1.9539999961853027 -5.6529998779296875,-1.9539999961853027 C-5.6529998779296875,-1.9539999961853027 -9.767999649047852,-1.9539999961853027 -9.767999649047852,-1.9539999961853027 C-10.64900016784668,-1.9539999961853027 -11.366000175476074,-1.2359999418258667 -11.366000175476074,-0.35499998927116394 C-11.366000175476074,-0.35499998927116394 -11.366000175476074,5.593999862670898 -11.366000175476074,5.593999862670898 C-11.366000175476074,6.328000068664551 -10.767999649047852,6.926000118255615 -10.034000396728516,6.926000118255615 C-9.300000190734863,6.926000118255615 -8.70199966430664,6.328000068664551 -8.70199966430664,5.593999862670898 C-8.70199966430664,5.593999862670898 -8.70199966430664,0.8880000114440918 -8.70199966430664,0.8880000114440918 C-8.70199966430664,0.6919999718666077 -8.862000465393066,0.5329999923706055 -9.057999610900879,0.5329999923706055 C-9.253999710083008,0.5329999923706055 -9.413000106811523,0.6919999718666077 -9.413000106811523,0.8880000114440918 C-9.413000106811523,0.8880000114440918 -9.413000106811523,5.593999862670898 -9.413000106811523,5.593999862670898 C-9.413000106811523,5.936999797821045 -9.690999984741211,6.216000080108643 -10.034000396728516,6.216000080108643 C-10.376999855041504,6.216000080108643 -10.656000137329102,5.936999797821045 -10.656000137329102,5.593999862670898 C-10.656000137329102,5.593999862670898 -10.656000137329102,-0.35499998927116394 -10.656000137329102,-0.35499998927116394 C-10.656000137329102,-0.8450000286102295 -10.258000373840332,-1.2430000305175781 -9.767999649047852,-1.2430000305175781 C-9.767999649047852,-1.2430000305175781 -5.50600004196167,-1.2430000305175781 -5.50600004196167,-1.2430000305175781 C-5.502999782562256,-1.2430000305175781 -5.500999927520752,-1.24399995803833 -5.498000144958496,-1.24399995803833 C-5.488999843597412,-1.24399995803833 -5.480000019073486,-1.24399995803833 -5.4710001945495605,-1.2450000047683716 C-5.465000152587891,-1.246000051498413 -5.458000183105469,-1.246999979019165 -5.452000141143799,-1.2480000257492065 C-5.447000026702881,-1.2489999532699585 -5.440999984741211,-1.2489999532699585 -5.435999870300293,-1.25 C-5.428999900817871,-1.2510000467300415 -5.422999858856201,-1.253000020980835 -5.416999816894531,-1.2549999952316284 C-5.4120001792907715,-1.25600004196167 -5.4079999923706055,-1.2569999694824219 -5.4029998779296875,-1.2580000162124634 C-5.396999835968018,-1.2599999904632568 -5.390999794006348,-1.2630000114440918 -5.385000228881836,-1.2649999856948853 C-5.380000114440918,-1.2669999599456787 -5.375,-1.2680000066757202 -5.369999885559082,-1.2699999809265137 C-5.364999771118164,-1.2719999551773071 -5.359000205993652,-1.274999976158142 -5.354000091552734,-1.277999997138977 C-5.348999977111816,-1.2799999713897705 -5.3429999351501465,-1.281999945640564 -5.3379998207092285,-1.284999966621399 C-5.333000183105469,-1.2879999876022339 -5.328999996185303,-1.2910000085830688 -5.323999881744385,-1.2940000295639038 C-5.318999767303467,-1.2970000505447388 -5.313000202178955,-1.2999999523162842 -5.308000087738037,-1.3029999732971191 C-5.302999973297119,-1.305999994277954 -5.297999858856201,-1.309999942779541 -5.293000221252441,-1.3140000104904175 C-5.289000034332275,-1.3170000314712524 -5.283999919891357,-1.3209999799728394 -5.28000020980835,-1.3240000009536743 C-5.271999835968018,-1.3309999704360962 -5.263999938964844,-1.3380000591278076 -5.256999969482422,-1.3450000286102295 C-5.25600004196167,-1.3459999561309814 -5.255000114440918,-1.3459999561309814 -5.254000186920166,-1.347000002861023 C-5.254000186920166,-1.347000002861023 -2.7679998874664307,-3.8340001106262207 -2.7679998874664307,-3.8340001106262207 C-2.6449999809265137,-3.9570000171661377 -2.4830000400543213,-4.02400016784668 -2.309000015258789,-4.02400016784668 C-2.134999990463257,-4.02400016784668 -1.9730000495910645,-3.9570000171661377 -1.850000023841858,-3.8340001106262207 C-1.597000002861023,-3.5810000896453857 -1.597000002861023,-3.1679999828338623 -1.850000023841858,-2.9149999618530273 C-1.850000023841858,-2.9149999618530273 -5.4019999504089355,0.6370000243186951 -5.4019999504089355,0.6370000243186951 C-5.4029998779296875,0.6380000114440918 -5.4029998779296875,0.6380000114440918 -5.4039998054504395,0.6389999985694885 C-5.410999774932861,0.6470000147819519 -5.418000221252441,0.6549999713897705 -5.425000190734863,0.6629999876022339 C-5.428999900817871,0.6669999957084656 -5.432000160217285,0.671999990940094 -5.434999942779541,0.6759999990463257 C-5.439000129699707,0.6809999942779541 -5.442999839782715,0.6859999895095825 -5.446000099182129,0.6909999847412109 C-5.448999881744385,0.6959999799728394 -5.452000141143799,0.7009999752044678 -5.454999923706055,0.7059999704360962 C-5.458000183105469,0.7110000252723694 -5.460999965667725,0.7160000205039978 -5.464000225067139,0.7210000157356262 C-5.4670000076293945,0.7260000109672546 -5.468999862670898,0.7319999933242798 -5.4720001220703125,0.7369999885559082 C-5.473999977111816,0.7419999837875366 -5.4770002365112305,0.746999979019165 -5.479000091552734,0.7519999742507935 C-5.480999946594238,0.7570000290870667 -5.48199987411499,0.7630000114440918 -5.484000205993652,0.7680000066757202 C-5.486000061035156,0.7730000019073486 -5.48799991607666,0.7789999842643738 -5.489999771118164,0.7850000262260437 C-5.492000102996826,0.7900000214576721 -5.49399995803833,0.7960000038146973 -5.494999885559082,0.8009999990463257 C-5.495999813079834,0.8069999814033508 -5.498000144958496,0.8119999766349792 -5.499000072479248,0.8180000185966492 C-5.5,0.824999988079071 -5.500999927520752,0.8320000171661377 -5.501999855041504,0.8379999995231628 C-5.502999782562256,0.8429999947547913 -5.504000186920166,0.8479999899864197 -5.504000186920166,0.8529999852180481 C-5.505000114440918,0.8650000095367432 -5.50600004196167,0.8759999871253967 -5.50600004196167,0.8880000114440918 C-5.50600004196167,0.8880000114440918 -5.50600004196167,6.571000099182129 -5.50600004196167,6.571000099182129 C-5.50600004196167,6.767000198364258 -5.3460001945495605,6.926000118255615 -5.150000095367432,6.926000118255615 C-4.953999996185303,6.926000118255615 -4.795000076293945,6.767000198364258 -4.795000076293945,6.571000099182129 C-4.795000076293945,6.571000099182129 -4.795000076293945,1.034999966621399 -4.795000076293945,1.034999966621399 C-4.795000076293945,1.034999966621399 -1.347000002861023,-2.4130001068115234 -1.347000002861023,-2.4130001068115234 C-0.9039999842643738,-2.8559999465942383 -0.8320000171661377,-3.5309998989105225 -1.1299999952316284,-4.051000118255615 C-1.1299999952316284,-4.051000118255615 0,-5.181000232696533 0,-5.181000232696533 C0,-5.181000232696533 0.5019999742507935,-5.683000087738037 0.5019999742507935,-5.683000087738037z"></path></g></g><g transform="matrix(34.41999816894531,0,0,34.41999816894531,540,539.9935302734375)" opacity="1" style="display: block;"><g opacity="1" transform="matrix(1,0,0,1,0,0)"><path fill="rgb(92,255,79)" fill-opacity="1" d=" M-7.814000129699707,-2.4860000610351562 C-6.34499979019165,-2.4860000610351562 -5.150000095367432,-3.680999994277954 -5.150000095367432,-5.150000095367432 C-5.150000095367432,-6.61899995803833 -6.34499979019165,-7.814000129699707 -7.814000129699707,-7.814000129699707 C-9.282999992370605,-7.814000129699707 -10.477999687194824,-6.61899995803833 -10.477999687194824,-5.150000095367432 C-10.477999687194824,-3.680999994277954 -9.282999992370605,-2.4860000610351562 -7.814000129699707,-2.4860000610351562z M-7.814000129699707,-7.104000091552734 C-6.736999988555908,-7.104000091552734 -5.861000061035156,-6.2270002365112305 -5.861000061035156,-5.150000095367432 C-5.861000061035156,-4.072999954223633 -6.736999988555908,-3.197000026702881 -7.814000129699707,-3.197000026702881 C-8.890999794006348,-3.197000026702881 -9.767999649047852,-4.072999954223633 -9.767999649047852,-5.150000095367432 C-9.767999649047852,-6.2270002365112305 -8.890999794006348,-7.104000091552734 -7.814000129699707,-7.104000091552734z"></path></g></g></g></svg>