<svg xmlns="http://www.w3.org/2000/svg" xmlns:xlink="http://www.w3.org/1999/xlink" viewBox="0 0 1080 1080" width="1080" height="1080" preserveAspectRatio="xMidYMid meet" style="width: 100%; height: 100%; transform: translate3d(0px, 0px, 0px); content-visibility: visible;"><defs><clipPath id="__lottie_element_526"><rect width="1080" height="1080" x="0" y="0"></rect></clipPath></defs><g clip-path="url(#__lottie_element_526)"><g transform="matrix(24.399999618530273,0,0,24.399999618530273,540,540)" opacity="1" style="display: block;"></g><g transform="matrix(24.399999618530273,0,0,24.399999618530273,539.9904174804688,539.9995727539062)" opacity="1" style="display: block;"><g opacity="1" transform="matrix(1,0,0,1,0,0)"><path fill="rgb(92,255,79)" fill-opacity="1" d=" M-12.67199993133545,0.4740000069141388 C-11.15999984741211,0.4740000069141388 -10.529999732971191,-0.3179999887943268 -10.529999732971191,-1.3079999685287476 C-10.529999732971191,-2.315999984741211 -11.178000450134277,-3.125999927520752 -12.618000030517578,-3.125999927520752 C-14.057999610900879,-3.125999927520752 -14.616000175476074,-2.24399995803833 -14.616000175476074,-1.253999948501587 C-14.616000175476074,-0.2280000001192093 -13.986000061035156,0.4740000069141388 -12.67199993133545,0.4740000069141388z M-12.744000434875488,6.179999828338623 C-15.71399974822998,6.179999828338623 -16.739999771118164,5.064000129699707 -17.082000732421875,3.4079999923706055 C-17.082000732421875,3.4079999923706055 -14.670000076293945,2.9579999446868896 -14.670000076293945,2.9579999446868896 C-14.472000122070312,3.822000026702881 -13.805999755859375,4.271999835968018 -12.63599967956543,4.271999835968018 C-10.907999992370605,4.271999835968018 -10.277999877929688,3.0840001106262207 -10.223999977111816,0.31200000643730164 C-10.223999977111816,0.31200000643730164 -10.673999786376953,0.22200000286102295 -10.673999786376953,0.22200000286102295 C-11.232000350952148,1.3020000457763672 -12.239999771118164,1.8600000143051147 -13.62600040435791,1.8600000143051147 C-15.605999946594238,1.8600000143051147 -17.100000381469727,1.0140000581741333 -17.100000381469727,-1.2719999551773071 C-17.100000381469727,-3.684000015258789 -15.569999694824219,-4.980000019073486 -12.600000381469727,-4.980000019073486 C-9.791999816894531,-4.980000019073486 -7.866000175476074,-3.7920000553131104 -7.866000175476074,0.492000013589859 C-7.866000175476074,3.6419999599456787 -9.270000457763672,6.179999828338623 -12.744000434875488,6.179999828338623z M-1.9179999828338623,0.4740000069141388 C-0.4059999883174896,0.4740000069141388 0.2240000069141388,-0.3179999887943268 0.2240000069141388,-1.3079999685287476 C0.2240000069141388,-2.315999984741211 -0.42399999499320984,-3.125999927520752 -1.8639999628067017,-3.125999927520752 C-3.303999900817871,-3.125999927520752 -3.861999988555908,-2.24399995803833 -3.861999988555908,-1.253999948501587 C-3.861999988555908,-0.2280000001192093 -3.2320001125335693,0.4740000069141388 -1.9179999828338623,0.4740000069141388z M-1.9900000095367432,6.179999828338623 C-4.960000038146973,6.179999828338623 -5.986000061035156,5.064000129699707 -6.328000068664551,3.4079999923706055 C-6.328000068664551,3.4079999923706055 -3.9159998893737793,2.9579999446868896 -3.9159998893737793,2.9579999446868896 C-3.7179999351501465,3.822000026702881 -3.052000045776367,4.271999835968018 -1.8819999694824219,4.271999835968018 C-0.15399999916553497,4.271999835968018 0.47600001096725464,3.0840001106262207 0.5299999713897705,0.31200000643730164 C0.5299999713897705,0.31200000643730164 0.07999999821186066,0.22200000286102295 0.07999999821186066,0.22200000286102295 C-0.4779999852180481,1.3020000457763672 -1.4859999418258667,1.8600000143051147 -2.871999979019165,1.8600000143051147 C-4.8520002365112305,1.8600000143051147 -6.3460001945495605,1.0140000581741333 -6.3460001945495605,-1.2719999551773071 C-6.3460001945495605,-3.684000015258789 -4.815999984741211,-4.980000019073486 -1.8459999561309814,-4.980000019073486 C0.9620000123977661,-4.980000019073486 2.888000011444092,-3.7920000553131104 2.888000011444092,0.492000013589859 C2.888000011444092,3.6419999599456787 1.4839999675750732,6.179999828338623 -1.9900000095367432,6.179999828338623z"></path></g></g><g transform="matrix(24.399999618530273,0,0,24.399999618530273,567.555419921875,539.9761962890625)" opacity="1" style="display: block;"><g opacity="1" transform="matrix(1,0,0,1,0,0)"><path fill="rgb(92,255,79)" fill-opacity="1" d=" M7.071000099182129,1.1579999923706055 C5.181000232696533,1.1579999923706055 4.011000156402588,0.006000000052154064 4.011000156402588,-1.937999963760376 C4.011000156402588,-3.8459999561309814 5.181000232696533,-4.998000144958496 7.071000099182129,-4.998000144958496 C8.942999839782715,-4.998000144958496 10.130999565124512,-3.8459999561309814 10.130999565124512,-1.937999963760376 C10.130999565124512,0.006000000052154064 8.942999839782715,1.1579999923706055 7.071000099182129,1.1579999923706055z M7.071000099182129,-0.3179999887943268 C7.809000015258789,-0.3179999887943268 8.295000076293945,-0.8759999871253967 8.295000076293945,-1.937999963760376 C8.295000076293945,-2.9820001125335693 7.809000015258789,-3.503999948501587 7.071000099182129,-3.503999948501587 C6.315000057220459,-3.503999948501587 5.8470001220703125,-2.9820001125335693 5.8470001220703125,-1.937999963760376 C5.8470001220703125,-0.8759999871253967 6.296999931335449,-0.3179999887943268 7.071000099182129,-0.3179999887943268z M13.767000198364258,6.1620001792907715 C11.895000457763672,6.1620001792907715 10.706999778747559,5.010000228881836 10.706999778747559,3.065999984741211 C10.706999778747559,1.1579999923706055 11.895000457763672,0.006000000052154064 13.767000198364258,0.006000000052154064 C15.638999938964844,0.006000000052154064 16.82699966430664,1.1579999923706055 16.82699966430664,3.065999984741211 C16.82699966430664,5.010000228881836 15.638999938964844,6.1620001792907715 13.767000198364258,6.1620001792907715z M13.767000198364258,4.685999870300293 C14.52299976348877,4.685999870300293 14.991000175476074,4.127999782562256 14.991000175476074,3.065999984741211 C14.991000175476074,2.0220000743865967 14.505000114440918,1.5 13.767000198364258,1.5 C13.01099967956543,1.5 12.543000221252441,2.0220000743865967 12.543000221252441,3.065999984741211 C12.543000221252441,4.127999782562256 12.993000030517578,4.685999870300293 13.767000198364258,4.685999870300293z M13.17300033569336,-4.800000190734863 C13.17300033569336,-4.800000190734863 16.55699920654297,-4.800000190734863 16.55699920654297,-4.800000190734863 C16.55699920654297,-4.800000190734863 16.55699920654297,-4.619999885559082 16.55699920654297,-4.619999885559082 C16.55699920654297,-4.619999885559082 11.463000297546387,-0.1379999965429306 11.463000297546387,-0.1379999965429306 C11.463000297546387,-0.1379999965429306 10.833000183105469,-0.5519999861717224 10.833000183105469,-0.5519999861717224 C10.833000183105469,-0.5519999861717224 13.17300033569336,-4.800000190734863 13.17300033569336,-4.800000190734863z M7.736999988555908,6 C7.736999988555908,6 4.353000164031982,6 4.353000164031982,6 C4.353000164031982,6 4.353000164031982,5.820000171661377 4.353000164031982,5.820000171661377 C4.353000164031982,5.820000171661377 9.446999549865723,1.3380000591278076 9.446999549865723,1.3380000591278076 C9.446999549865723,1.3380000591278076 10.07699966430664,1.7519999742507935 10.07699966430664,1.7519999742507935 C10.07699966430664,1.7519999742507935 7.736999988555908,6 7.736999988555908,6z"></path><g opacity="1" transform="matrix(1,0,0,1,0,0)"></g></g></g></g></svg>