<svg xmlns="http://www.w3.org/2000/svg" xmlns:xlink="http://www.w3.org/1999/xlink" viewBox="0 0 1080 1080" width="1080" height="1080" preserveAspectRatio="xMidYMid meet" style="width: 100%; height: 100%; transform: translate3d(0px, 0px, 0px); content-visibility: visible;"><defs><clipPath id="__lottie_element_556"><rect width="1080" height="1080" x="0" y="0"></rect></clipPath></defs><g clip-path="url(#__lottie_element_556)"><g transform="matrix(33.599998474121094,0,0,33.599998474121094,540,540)" opacity="1" style="display: block;"><g opacity="1" transform="matrix(1,0,0,1,0,0)"><path fill="rgb(92,255,79)" fill-opacity="1" d=" M6.539000034332275,-4.302000045776367 C6.539000034332275,-4.302000045776367 1.2480000257492065,-4.302000045776367 1.2480000257492065,-4.302000045776367 C1.2480000257492065,-4.302000045776367 3.628999948501587,-12 3.628999948501587,-12 C3.628999948501587,-12 -3.6559998989105225,-12 -3.6559998989105225,-12 C-3.6559998989105225,-12 -6.539000034332275,1.7920000553131104 -6.539000034332275,1.7920000553131104 C-6.539000034332275,1.7920000553131104 -3.009999990463257,1.7920000553131104 -3.009999990463257,1.7920000553131104 C-3.009999990463257,1.7920000553131104 -3.9079999923706055,12 -3.9079999923706055,12 C-3.9079999923706055,12 6.539000034332275,-4.302000045776367 6.539000034332275,-4.302000045776367z"></path></g></g><g style="display: none;"><g><path></path></g></g></g></svg>